<svg xmlns="http://www.w3.org/2000/svg" width="2363" height="680.619" viewBox="0 0 2363 680.619"><g transform="translate(2086.45 -26.109)"><rect width="2363" height="385" transform="translate(-2086.45 321.727)" fill="#f1f2f2"/><g transform="translate(-752.24 26.109)"><g transform="translate(0)"><g transform="translate(70.207)"><path d="M260.586,92.025c-10.089,1.156-21.535,8.927-22.839,18-4.659-7.888-20.925-10.092-30.694-7.319-25.781,7.318-28.87,38.295-13.872,55.747,8.072,9.393,18.494,16.941,29.512,23.39,9.226,5.4,32.392,16.142,32.444,16.079.071.038,17.4-18.716,23.878-27.222,7.732-10.158,14.5-21.105,18.383-32.865C304.619,115.982,287.212,88.976,260.586,92.025Z" transform="translate(-184.158 -91.788)" fill="#d34e4e"/><g transform="translate(51.416 34.623)" opacity="0.12" style="mix-blend-mode:multiply;isolation:isolate"><path d="M335.641,170.174a145.225,145.225,0,0,1-18.018,26.067c-6.722,7.72-14.965,14.918-24.849,18.734a36.612,36.612,0,0,1-14.351,2.52c9.633,4.8,20.022,9.594,20.057,9.553.071.038,17.4-18.716,23.878-27.222,7.732-10.158,14.5-21.105,18.383-32.865a33.071,33.071,0,0,0,1.612-11.7A105.349,105.349,0,0,1,335.641,170.174Z" transform="translate(-278.422 -155.264)"/></g><g transform="translate(12.199 19.646)"><path d="M300.88,149.474,280.4,154.069l-12.8-25.55a1.468,1.468,0,0,0-2.7.535q-3.315,25.1-6.631,50.193-.192,1.454-.384,2.907l-16.963-28.822-2.721-4.622a1.483,1.483,0,0,0-2.623.191q-2.45,8.3-4.9,16.6l-23.036,4.557a1.345,1.345,0,1,0,.521,2.638l23.9-4.729a1.432,1.432,0,0,0,1.081-.892q2.1-7.114,4.2-14.228l17.4,29.569,2.721,4.623a1.469,1.469,0,0,0,2.7-.535q3.315-25.1,6.631-50.193.158-1.2.317-2.4l11.184,22.334a1.438,1.438,0,0,0,1.543.7l21.552-4.835A1.345,1.345,0,1,0,300.88,149.474Z" transform="translate(-206.523 -127.805)" fill="#fff"/></g></g><g transform="translate(356.403 28.163)"><path d="M733,155.008h0a.59.59,0,0,1-.785.285l-23.024-10.747a.591.591,0,0,1-.286-.785h0a.591.591,0,0,1,.786-.286l23.024,10.747A.59.59,0,0,1,733,155.008Z" transform="translate(-708.852 -143.42)" fill="#3b455a"/><g transform="translate(13.785 5.904)"><path d="M748.577,160.123l-1.285,2.753L735,157.141a1.52,1.52,0,0,1-.734-2.02h0a1.52,1.52,0,0,1,2.02-.734Z" transform="translate(-734.125 -154.244)" fill="#8ec3cb"/></g><g transform="translate(22.178 4.837)"><g transform="translate(83.632 46.333)"><path d="M924.674,241.662,922.925,245l-14.8-7.763-5.289,10.083,14.8,7.763-1.749,3.334a2.755,2.755,0,0,0,4.879,2.559l8.787-16.751a2.755,2.755,0,0,0-4.879-2.559Z" transform="translate(-902.837 -237.233)" fill="#474ebb"/><g transform="translate(8.457 4.436)" opacity="0.12"><path d="M918.341,255.449l5.289-10.083,3.957,2.076-8.162,8.576Z" transform="translate(-918.341 -245.366)"/></g></g><g transform="translate(80.592 38.702)"><path d="M0,0H30.118a0,0,0,0,1,0,0V5.31a2.77,2.77,0,0,1-2.77,2.77H2.77A2.77,2.77,0,0,1,0,5.31V0A0,0,0,0,1,0,0Z" transform="translate(0 26.671) rotate(-62.321)" fill="#3b455a"/></g><path d="M849.375,183.8a2.593,2.593,0,0,0-3.31,1.217l-1.028,1.959a2.492,2.492,0,0,1-3.365,1.049l-67.28-35.291a3.918,3.918,0,0,0-2.64-.361L752.494,156.5a1.25,1.25,0,0,0-.847.645l-1.994,3.829a1.249,1.249,0,0,0-.044,1.061l7.582,18.105a3.917,3.917,0,0,0,1.793,1.955l67.286,35.295a2.492,2.492,0,0,1,1.049,3.365l-1.027,1.958a2.592,2.592,0,0,0,.88,3.416,2.535,2.535,0,0,0,3.568-.984l19.854-37.85A2.535,2.535,0,0,0,849.375,183.8Z" transform="translate(-749.511 -152.289)" fill="#8ec3cb"/><g transform="translate(2.663 3.818)" opacity="0.17"><path d="M776.711,159.788a4.21,4.21,0,0,0-2.452-.471l-17.448,2.175a.938.938,0,0,0-.737.481l-1.586,3.049a.942.942,0,0,0,.028.878l8.151,15.523a4.213,4.213,0,0,0,1.776,1.739l64.188,33.67Z" transform="translate(-754.393 -159.288)" fill="#dbe8eb"/></g><g transform="translate(16.452 24.26)"><g transform="translate(22.907 12.016)"><path d="M0,0H9.516a.318.318,0,0,1,.318.318V1.535a.318.318,0,0,1-.318.318H0a0,0,0,0,1,0,0V0A0,0,0,0,1,0,0Z" transform="translate(0 8.709) rotate(-62.321)" fill="#3b455a"/></g><g transform="translate(0 0)"><path d="M0,0H9.516a.318.318,0,0,1,.318.318V1.535a.318.318,0,0,1-.318.318H0a0,0,0,0,1,0,0V0A0,0,0,0,1,0,0Z" transform="translate(0 8.709) rotate(-62.321)" fill="#3b455a"/></g><g transform="translate(45.815 24.032)"><path d="M0,0H9.516a.318.318,0,0,1,.318.318V1.535a.318.318,0,0,1-.318.318H0a0,0,0,0,1,0,0V0A0,0,0,0,1,0,0Z" transform="translate(0 8.709) rotate(-62.321)" fill="#3b455a"/></g><g transform="translate(34.508 22.351)"><path d="M0,0H4.775a.261.261,0,0,1,.261.261v1a.261.261,0,0,1-.261.261H0a0,0,0,0,1,0,0V0A0,0,0,0,1,0,0Z" transform="translate(0 4.459) rotate(-62.321)" fill="#3b455a"/></g><g transform="translate(11.601 10.334)"><path d="M0,0H4.775a.261.261,0,0,1,.261.261v1a.261.261,0,0,1-.261.261H0a0,0,0,0,1,0,0V0A0,0,0,0,1,0,0Z" transform="translate(0 4.459) rotate(-62.32)" fill="#3b455a"/></g></g></g></g><g transform="translate(110.8 69.902)"><g transform="translate(58.025 157.829)"><path d="M390.972,513.484l-2.835,38.789-9.386,64.219h-7.217l-4.558-59.255L364.957,509.3Z" transform="translate(-364.957 -509.296)" fill="#ccd2d9"/><g transform="translate(6.619 106.338)"><path d="M377.092,704.249v3.9l7.8,3.9,3.9-3.9-3.9-3.9Z" transform="translate(-377.092 -704.249)" fill="#3b455a"/></g></g><g transform="translate(32.918 148.282)"><path d="M318.929,496.387l2.743,54.372,6.28,62.419h7.392l6.008-59.139,8.776-62.246Z" transform="translate(-318.929 -491.793)" fill="#ccd2d9"/><g transform="translate(4.382 120.505)"><path d="M338.954,712.72v4l-7.994,4-4-4,4-4Z" transform="translate(-326.963 -712.72)" fill="#3b455a"/></g></g><g transform="translate(36.723 23.17)"><g transform="translate(9.276 15.485)"><path d="M355.023,317.853l-7.565-.74a37.955,37.955,0,0,1,.4-6.042c-2.1-.736-4.532-1.841-4.9-4.037a6.276,6.276,0,0,1,.121-2.091q.735-4.288,1.47-8.577a7.66,7.66,0,0,1,.886-2.854c.941-1.487,2.771-2.14,4.505-2.444a15.661,15.661,0,0,1,12.685,3.073,6.862,6.862,0,0,1,2.146,2.822c.623,1.735.161,3.65-.3,5.434l-1.29,4.939c-.494,1.894-1.209,4.047-3.032,4.759-.968.379-2.111.27-2.987.829C355.614,313.907,355.826,316.206,355.023,317.853Z" transform="translate(-342.911 -290.81)" fill="#efbfa5"/></g><path d="M365,275.721a20.386,20.386,0,0,0-.143-6.551c-.283-1.34-2-5.558-1.475-6.749-.975,2.065-3.6,2.635-5.875,2.861-8.512.85-18.01-1.255-25.835,3.114a10.1,10.1,0,0,0-3.456,3.417,15.223,15.223,0,0,0-.02,16.1,21.736,21.736,0,0,0,2.373,2.983c1.787,1.933,3.926,4.321,6.382,5.035.056-2.2-1.954-9.119-.27-10.922,2.365-2.53,6.666-2.037,9.739-1.6a45.172,45.172,0,0,0,11.764.062,13.869,13.869,0,0,0,3.773-.8c2.849-1.19,2.749-3.837,3.005-6.541C364.973,276,364.986,275.862,365,275.721Z" transform="translate(-325.904 -262.421)" fill="#3b455a"/></g><g transform="translate(0 17.471)"><path d="M266.68,267.694l-.918-4.7,2.411-3.463-.474-.884-1.112.54,1.178-3.448-1.048-2.765-3.8-1-3.738,1.6-.6,3.883,1.7,4.354.978,6.483Z" transform="translate(-258.578 -251.973)" fill="#efbfa5"/><g transform="translate(1.49 11.956)"><path d="M268.521,274.344l-7.211-.451,3.219,39.345,30.613,16.19,7.053-19.109-24.2-11.132Z" transform="translate(-261.31 -273.893)" fill="#ebb044"/></g></g><g transform="translate(62.191)"><g transform="translate(26.347)"><path d="M423.661,236.038l.245-4.779-2.876-3.088.345-.942,1.177.378-1.653-3.247.647-2.885,3.624-1.532L429.1,221l1.139,3.76-1.064,4.55-.052,6.557Z" transform="translate(-420.898 -219.942)" fill="#efbfa5"/></g><g transform="translate(0 11.435)"><path d="M400.644,242.37l7.075-1.465.56,27.22-2.78,21.038-18.092,26.553-14.813-21.43,17.2-12.639Z" transform="translate(-372.595 -240.906)" fill="#ebb044"/></g></g><g transform="translate(18.174 63.753)"><path d="M337.825,336.822l-23.9,1.012L301.86,383.756,291.9,447.417l76.921,1.87-18.092-89.971Z" transform="translate(-291.897 -336.822)" fill="#ebb044"/></g></g><g transform="translate(285.556 96.475)"><g transform="translate(0 5.388)"><path d="M586.838,293.9l-.879-4.589,2.367-3.373-.46-.865-1.087.523,1.163-3.362-1.013-2.7-3.711-.995-3.656,1.546-.6,3.789,1.64,4.257.931,6.334Z" transform="translate(-578.965 -278.536)" fill="#c1796b"/><g transform="translate(0.896 10.548)"><path d="M587.828,297.874l-7.221,6.136,1.025,31.511,12.145,8.459,23.21-2.974-3.1-19.943L594.5,324.8Z" transform="translate(-580.608 -297.874)" fill="#474ebb"/></g></g><g transform="translate(17.44 106.757)"><g transform="translate(18.072 0.766)"><g transform="translate(35.336 123.874)"><path d="M720.1,697.053l.908,4.164-7.193,5.93-4.958-3.281L712,698.819l7.193-5.93Z" transform="translate(-708.852 -692.889)" fill="#3b455a"/></g><path d="M665.493,465.786l8.027,18.51.757,52.077,16.5,56.016-7.675,3.4-33.68-65.043-3.833-20.6-1.523-43.388Z" transform="translate(-644.07 -465.786)" fill="#474ebb"/></g><path d="M611.57,469.3l-.631,54.577,10.285,70.369h7.908l4.995-64.93,10.822-64.93Z" transform="translate(-610.939 -464.381)" fill="#474ebb"/><g transform="translate(5.32 128.919)"><path d="M633.519,700.735v4.276l-8.552,4.276-4.276-4.276,4.276-4.276Z" transform="translate(-620.692 -700.735)" fill="#3a332d"/></g></g><g transform="translate(6.892 36.992)"><path d="M618.353,337.255l21.007-.778s12.567,11.026,19.061,39.679c6.614,29.176-1.221,71.177-1.221,71.177s-56.358-7.511-65.6-8.672l14.1-57.605Z" transform="translate(-591.601 -336.477)" fill="#474ebb"/></g><g transform="translate(17.201)"><g transform="translate(14.194 13.608)"><path d="M646.3,319.915l7.36-.719a37.006,37.006,0,0,0-.391-5.878c2.045-.716,4.409-1.791,4.768-3.928a6.107,6.107,0,0,0-.118-2.034l-1.43-8.344a7.449,7.449,0,0,0-.862-2.776c-.916-1.447-2.7-2.082-4.383-2.378a15.234,15.234,0,0,0-12.34,2.989,6.67,6.67,0,0,0-2.088,2.745c-.606,1.688-.157,3.551.3,5.286l1.255,4.8c.48,1.842,1.176,3.936,2.949,4.629.941.368,2.054.262,2.906.806C645.726,316.076,645.52,318.312,646.3,319.915Z" transform="translate(-636.523 -293.607)" fill="#c1796b"/></g><path d="M610.505,280.778a23.668,23.668,0,0,1,.6-5.575c.655-2.987,4.179-4.33,7.23-4.542,6.59-.457,12.949-3.445,19.384-1.139,3.678,1.318,8.619,1.635,11.948,3.493a9.825,9.825,0,0,1,3.362,3.325A14.809,14.809,0,0,1,653.05,292a21.161,21.161,0,0,1-2.308,2.9c-1.738,1.881-3.819,4.2-6.208,4.9-.054-2.137,1.9-8.871.263-10.624-2.6-2.782-8.49-1.821-11.721-1.141-3.525.741-6.669,3.232-10.163,3.761-2.514.38-5.721-.857-7.857-2.159C611.709,287.595,610.592,284.223,610.505,280.778Z" transform="translate(-610.5 -268.659)" fill="#3b455a"/></g><g transform="translate(15.545 39.281)"><path d="M631.358,341.76,609.274,430.1l-1.81,11.585,27.514,3.62s-1.087-42.3-.724-47.94,4.443-17.839,5.068-30.982c.362-7.6,2.777-21.258,1.086-25.7Z" transform="translate(-607.464 -340.674)" fill="#fff"/></g></g><g transform="translate(0 104.45)"><g transform="translate(21.469 230.5)"><path d="M106.653,705.865l-.114,1.183-.377,3.927-7.949,3.405L94.8,710.193l4.163-3.666.384-.164.046.488Z" transform="translate(-94.804 -705.865)" fill="#3b455a"/></g><g transform="translate(18.948 161.581)"><path d="M104.957,648.378l-.4.055h-.424l-6.832.986-6.339-66.774-.775-3.131c5.947.087,13.014.176,20.136.232Z" transform="translate(-90.183 -579.513)" fill="#c1796b"/></g><g transform="translate(42.043 161.778)"><path d="M155.989,579.875l-1.463,17.35-14.676,44.984-7.17-.953-.117.879-.041-.006,5.284-46.359-4.525-15.836C141.605,579.987,149.745,579.985,155.989,579.875Z" transform="translate(-132.523 -579.875)" fill="#c1796b"/></g><g transform="translate(41.669 224.039)"><path d="M139.539,694.093l.451.06,3.28,4.5-4.342,3.489-7.091-5.008.414-3.116,7.007.931Z" transform="translate(-131.838 -694.02)" fill="#3b455a"/></g><g transform="translate(42.083 223.16)"><path d="M139.885,693.361l-.28.858-7.007-.931.117-.879Z" transform="translate(-132.598 -692.408)" fill="#3e3d3b"/></g><g transform="translate(8.067 54.659)"><path d="M77.946,389.723c-.921,4.341-4.357,7.525-7.711,10.54a182.858,182.858,0,0,1,7.513-16.775A14.8,14.8,0,0,1,77.946,389.723Z" transform="translate(-70.235 -383.488)" fill="#8ec3cb"/></g><g transform="translate(0.69 32.528)"><path d="M59.367,471.706s6.483.129,15.6.262c5.947.087,13.015.176,20.136.232q1.86.015,3.718.026c8.323.051,16.463.05,22.707-.061,4.718-.083,8.355-.229,10.168-.459l-15.224-78.754-.06-.243-4.05-16.485-5.9-24.037-14.721-7.015a8.556,8.556,0,0,1-4.2-2L87,342.915a11.917,11.917,0,0,0,.626,1.869q.152.347.325.661c1.227,2.238,3.127,4.339,3.079,6.891a6.015,6.015,0,0,1-.206,1.394,23.259,23.259,0,0,1-.867,2.444c-3.267,8.558.325,18.219,5.639,25.449,2.722,3.7,6.316,6.915,7.867,11.241a9.576,9.576,0,0,1,.507,2.344c.361,3.9-1.475,8.145-5.229,8.78a10.1,10.1,0,0,0-2.635.469c-2.774,1.289-1.575,5.837-3.628,8.1-1.327,1.465-3.57,1.516-5.546,1.46a3.56,3.56,0,0,1-1.871-.4c-1.154-.753-1.043-2.43-1.383-3.765-.616-2.419-3.032-4.008-5.471-4.542s-4.971-.251-7.467-.247a19.093,19.093,0,0,1-9.059-1.928,11.866,11.866,0,0,1-2.936-2.215C53.826,431.005,59.367,471.706,59.367,471.706Z" transform="translate(-56.709 -342.915)" fill="#8ec3cb"/></g><g transform="translate(30.407 11.623)"><path d="M111.692,325.187c-1.381-5.978.115-15.423,4.112-18.946a7.593,7.593,0,0,1,5.369-1.652c.946-.007,1.263.238,1.751.152a9.687,9.687,0,0,1,2.305,6.466c-.154,1.861-1.227,3.28-1.312,5.279-.17,3.638-5.373,7.29-3.374,10.9a8.554,8.554,0,0,1-4.042.361l-4.2-2Q111.987,325.481,111.692,325.187Z" transform="translate(-111.19 -304.589)" fill="#c1796b"/></g><g transform="translate(31.517 32.783)"><path d="M117.427,345.384a8.556,8.556,0,0,1-4.2-2Z" transform="translate(-113.226 -343.382)" fill="#e1cfb5"/></g><g transform="translate(39.303 8.841)"><path d="M131.332,314.167c.086-2,1.158-3.418,1.312-5.279a9.688,9.688,0,0,0-2.305-6.466,2.4,2.4,0,0,0,.835-.368,5.375,5.375,0,0,0,1.691-2.566c1.857,1.174,3.208,3.3,3.581,6.526a24.363,24.363,0,0,1-.805,10.73c-1.2,3.514-3.772,6.818-7.105,8.122-.194.076-.387.142-.578.205C125.958,321.458,131.162,317.805,131.332,314.167Z" transform="translate(-127.501 -299.488)" fill="#c1796b"/></g><g transform="translate(0 0)"><path d="M55.568,368.891a9.447,9.447,0,0,0,2.6,4.925q.158-.966.33-1.917-.172.951-.33,1.917a11.864,11.864,0,0,0,2.936,2.215,19.093,19.093,0,0,0,9.059,1.928c2.5,0,5.029-.287,7.467.247s4.855,2.123,5.471,4.542c.34,1.335.229,3.013,1.383,3.765a3.56,3.56,0,0,0,1.871.4c1.976.057,4.219,0,5.546-1.46,2.053-2.268.854-6.816,3.628-8.1a10.1,10.1,0,0,1,2.635-.469c3.754-.635,5.59-4.881,5.229-8.78a9.576,9.576,0,0,0-.508-2.344c-1.551-4.327-5.145-7.538-7.867-11.241-5.313-7.231-8.906-16.892-5.639-25.449a23.259,23.259,0,0,0,.867-2.444,6.015,6.015,0,0,0,.207-1.394c.047-2.552-1.852-4.653-3.08-6.891q-.172-.313-.324-.661a11.917,11.917,0,0,1-.626-1.869q-.038-.152-.075-.307a14.857,14.857,0,0,1-2.8-15.96q.212-.444.448-.87-.236.425-.448.87a14.857,14.857,0,0,0,2.8,15.96c-1.38-5.978.116-15.423,4.113-18.946a7.593,7.593,0,0,1,5.369-1.652c.946-.007,1.263.238,1.751.152a2.4,2.4,0,0,0,.835-.368,5.375,5.375,0,0,0,1.691-2.566c1.857,1.174,3.208,3.3,3.581,6.526a24.359,24.359,0,0,1-.805,10.73c-1.2,3.514-3.772,6.818-7.105,8.122-.194.076-.387.142-.578.205a4.74,4.74,0,0,0,.646.9c1.825,2.007,4.753,2.474,7.443,2.821a1.99,1.99,0,0,0,.975-.037,1.4,1.4,0,0,0,.769-1.322,5.691,5.691,0,0,0-.34-1.582c-1.563-5.444,1.207-11.663,1.669-17.151s-.67-11.439-5.067-15.142a11.843,11.843,0,0,0-2.162.832q-.1-.137-.213-.269c-6.364-7.642-15.35-1.109-20.184,4.727a42.263,42.263,0,0,0-8.83,16.439,65.867,65.867,0,0,0-1.3,19.935c.352,3.407,1.7,6.751,2.411,10.087a14.813,14.813,0,0,1,.2,6.235c-.922,4.341-4.357,7.525-7.712,10.54q-.458,1.174-.912,2.383t-.9,2.451q-.289.8-.559,1.629.27-.827.559-1.629.447-1.243.9-2.451t.912-2.383c-.464.417-.927.831-1.381,1.244C58.395,359.357,54.719,363.911,55.568,368.891Zm33.465-75.645a15.021,15.021,0,0,1,1.52-.883A15.021,15.021,0,0,0,89.033,293.246Z" transform="translate(-55.445 -283.28)" fill="#3b455a"/></g></g><g transform="translate(368.247 101.824)"><g transform="translate(0 0)"><g transform="translate(38.849 121.459)"><path d="M801.79,512.551l31.021-11.408-6.394,54.344,3.7,46.884.328,2.983h0l-6.1.161h0l-14.211-43.889-7.233-44.5h0Z" transform="translate(-801.79 -501.143)" fill="#efbfa5"/><g transform="translate(14.297 104.211)"><path d="M836.269,692.357l6.346-.161,1.621,5.355-.16.048.041,0-10.492,6.217-4.989.555-.634-5.7,1.348-.987Z" transform="translate(-828.001 -692.196)" fill="#3b455a"/></g></g><g transform="translate(17.719 126.849)"><path d="M763.05,517.976l9.528,95.23,6.134.9,5.957-53.048,10.694-50.036Z" transform="translate(-763.05 -511.023)" fill="#efbfa5"/><g transform="translate(1.193 102.159)"><path d="M773.37,698.315l-8.133,4.612.762,3.838,14.532-2.19-.855-5.529Z" transform="translate(-765.237 -698.315)" fill="#3b455a"/></g></g><g transform="translate(0 36.3)"><g transform="translate(1.173 0.078)"><path d="M734.718,465.95c-1.963-1.363-2.005-3.736-2-6.113a59.39,59.39,0,0,1,1.832-13.363,200.752,200.752,0,0,0,5.127-28.48c2.51-27.25,11.115-45.535,11.115-45.535l2.776-7.4q.828-1.444,1.723-2.853c3.468-5.442,9.489-14.69,15.93-16.2.135-.032.27-.063.406-.092,6.771-1.486,15.447-.8,21.566,2.495a21.419,21.419,0,0,1,3.219,2.284c2.992,2.414,5.432,3.72,6.722,7.4,1.12,3.193,1.38,6.678,2,9.987,1.255,6.723,2,13.527,3,20.29,1.879,12.682,3.474,25.4,5.484,38.067,1.034,6.517,2.076,13.046,2.565,19.63.432,5.822,5.684,11.734,8.636,16.952,1.028,1.815-13.724,6.52-15.045,6.828-6.119,1.425-12.628,1.061-18.935,1.089q-20.735.094-41.441-1.277c-4.583-.3-10.232-1.179-14.3-3.461Q734.9,466.075,734.718,465.95Z" transform="translate(-732.717 -345.16)" fill="#d34e4e"/></g><g transform="translate(17.097)"><path d="M792.488,345.095s7.786-2.1,8.862,15.467,2.869,62.028,5.378,74.219,6.274,36.1,6.274,36.1l-23.843.829L761.91,469.56s9.322-17.21,10.756-29.4-1.076-58.085,5.019-75.295S785.06,345.4,792.488,345.095Z" transform="translate(-761.91 -345.016)" fill="#fff"/></g><g transform="translate(0 0.845)"><path d="M743,384.929l-12.435-1.918V372.3l30-22.866,9.681-2.868-4.661,12.549Z" transform="translate(-730.566 -346.565)" fill="#d34e4e"/></g></g><g transform="translate(29.625 7.565)"><path d="M792.068,307.229c-1.178,3.537.527,7.31,2.024,10.533,1.327,2.859,1.789,4.741-1.581,5.512-1.9.435-5.268,1.246-6.933-.208-1.26-1.1-.552-4.5.062-5.853.469-1.032,1.708-1.556,2.149-2.6a3.646,3.646,0,0,0,.214-1.375,18.987,18.987,0,0,0-.78-5.647,19.223,19.223,0,0,1-.978-3.752c-.161-1.871,1.162-4.052,1.857-5.771,1.293-3.2,5.8-7.489,9.566-4.978a5.512,5.512,0,0,1,1.776,2.481,4.576,4.576,0,0,1,.494,1.767c.029,2.456-2.214,2.87-3.762,4.039A12.3,12.3,0,0,0,792.068,307.229Z" transform="translate(-784.878 -292.335)" fill="#3b455a"/><g transform="translate(6.175 3.802)"><path d="M804.385,324.2a10.633,10.633,0,0,1-7.055-6.643,21.292,21.292,0,0,1-.953-9.937c1.131-11.122,14.967-10.408,19.652-1.883C820.111,313.167,813.893,326.441,804.385,324.2Z" transform="translate(-796.199 -299.305)" fill="#efbfa5"/></g><g transform="translate(14.296 24.728)"><path d="M811.156,340.441q.083,1.9.165,3.8a.582.582,0,0,0,.751.669l3.1-.107a3.372,3.372,0,0,0,1.5-.283c.987-.53,1.191-1.869,1.034-2.979a9.614,9.614,0,0,1-.321-3.324c-2.132,1.051-4.157-1.323-6.289-.273Z" transform="translate(-811.088 -337.671)" fill="#efbfa5"/></g></g><g transform="translate(37.768)"><path d="M810.49,278.866c3.633,1.234,5.962,4.909,9.508,6.376,2.034.842,4.44.949,6.1,2.395,3.718,3.24.73,10.038,3.784,13.911.635.805,1.491,1.414,2.129,2.217,1.375,1.732,1.555,4.1,1.678,6.3a6.959,6.959,0,0,1-.053,1.538c-.478,5.1-7.881,4.775-10.821,4.449-3.227-.358-2.151-2.151-2.151-2.151l.117-.143a6.173,6.173,0,0,0-2.168-5.6,7.557,7.557,0,0,1-1.743-1.529c-.956-1.459-.044-3.393-.184-5.131-.566-7-12.317-5.5-15.634-10.487C796.982,284.9,803.629,276.535,810.49,278.866Z" transform="translate(-799.807 -278.467)" fill="#3b455a"/></g></g></g><g transform="translate(426.541 86.336)"><g transform="translate(11.772)"><path d="M866.293,256.365l-4.5-6.294-2.774,1.805,2.126,4.992-1.708.245,4.506,4.917,3.137-1.487Z" transform="translate(-859.021 -250.071)" fill="#efbfa5"/></g><g transform="translate(0 8.426)"><path d="M837.44,317.1l23.533-19.007-8.734-29.038,8.679-3.534L877.1,303.81l-23.565,29.728Z" transform="translate(-837.44 -265.519)" fill="#d34e4e"/></g></g><g transform="translate(390.622 173.149)"><path d="M775.36,415.2l7.028-1.162-.366-3.025-4.989-.27.491-1.511-5.893,1.727-.044,3.2Z" transform="translate(-771.588 -409.229)" fill="#efbfa5"/></g><g transform="translate(368.247 167.75)"><path d="M737.622,399.33l-.037.612,17.2,5.261-.412,6.338-23.807-6.105Z" transform="translate(-730.566 -399.33)" fill="#d34e4e"/></g><g transform="translate(258.171 258.71)"><g transform="translate(0 18.294)"><rect width="87.737" height="65.765" rx="17.888" fill="#d34e4e"/></g><g transform="translate(20.737)"><path d="M609.122,580.809V568.2a2.281,2.281,0,0,0-2.366-2.108H572.589a2.28,2.28,0,0,0-2.366,2.108v12.58a3.579,3.579,0,0,0-3.446,3.605h11.591a3.58,3.58,0,0,0-3.414-3.6V570.306H604.39v10.467h-.237a3.58,3.58,0,0,0-3.548,3.611H612.2A3.588,3.588,0,0,0,609.122,580.809Z" transform="translate(-566.777 -566.091)" fill="#d34e4e"/></g><g transform="translate(20.963 27.615)"><path d="M610.432,633.669H594.845V617.808a1.1,1.1,0,0,0-1.07-1.089h-8.858a1.1,1.1,0,0,0-1.07,1.089v15.862H568.262a1.1,1.1,0,0,0-1.07,1.089v9.014a1.014,1.014,0,0,0,.307.762.978.978,0,0,0,.763.327h15.586v15.861a1.1,1.1,0,0,0,1.07,1.089h8.858a.98.98,0,0,0,.749-.313,1.013,1.013,0,0,0,.321-.776V644.861h15.586a1.1,1.1,0,0,0,1.07-1.089v-9.014A1.1,1.1,0,0,0,610.432,633.669Z" transform="translate(-567.192 -616.719)" fill="#fff"/></g></g><g transform="translate(143.889 83.016)"><g transform="translate(0 58.9)"><path d="M319.715,376.876a20.487,20.487,0,1,0,15.662-24.44A20.522,20.522,0,0,0,319.715,376.876Z" transform="translate(-319.242 -351.968)" fill="#3b455a"/><g transform="translate(6.407 6.429)"><path d="M331.314,380.875a14.082,14.082,0,1,0,10.765-16.8A14.107,14.107,0,0,0,331.314,380.875Z" transform="translate(-330.988 -363.754)" fill="#ccd2d9"/></g><g transform="translate(19.624 28.357)"><rect width="5.49" height="65.541" transform="translate(19.267 64.049) rotate(167.754)" fill="#ccd2d9"/></g><g transform="translate(15.888 16.196)"><path d="M348.482,387.521a4.821,4.821,0,1,0,3.686-5.751A4.83,4.83,0,0,0,348.482,387.521Z" transform="translate(-348.371 -381.66)" fill="#3b455a"/></g><g transform="translate(17.201 24.953)" opacity="0.13"><path d="M352.321,398.21l3.387,15.613a24.745,24.745,0,0,1-4.93-.2l.69-15.9Z" transform="translate(-350.777 -397.715)"/></g></g><g transform="translate(28.848 133.377)"><path d="M470.773,488.977c-1.192.212-2.213,1.239-3.535,1.113.3,1.883-.373-2.491-.189-.588q.369,3.817.462,7.66.052,2.177.008,4.36c0,.251-.058,1.615-.013.584-.016.383-.03.767-.049,1.15q-.054,1.109-.136,2.219a76.373,76.373,0,0,1-1.315,9.649c-.334,1.63-.729,3.255-1.2,4.873q-.367,1.271-.8,2.534c-.122.359-.253.718-.379,1.077-.023.067-.065.176-.1.262-.027.068-.052.135-.079.2a46.57,46.57,0,0,1-4.764,9.047c-.244.354-.5.7-.753,1.054.265-.367-.405.521-.541.689q-.738.911-1.545,1.79a40.084,40.084,0,0,1-3.659,3.473c.248-.217-.787.61-.979.75q-.562.412-1.143.8-1.055.713-2.172,1.365-.753.439-1.531.847c-.174.091-.353.178-.526.271l-.051.027-.053.023c-.842.369-1.669.751-2.531,1.089q-1.624.638-3.314,1.153-.709.218-1.427.413c-.214.058-.429.114-.644.17l-.043.009a66.458,66.458,0,0,1-6.942,1.159c-.671.067-1.341.113-2.013.161l-.13.007-.08.005-.451.022.269-.014c-.1,0-.2.007-.263.008-1.01.007-2.017.007-3.02-.042q-1.614-.079-3.2-.28c-.446-.057-.885-.13-1.329-.191l-.03,0-.067-.015c-.189-.042-.383-.075-.573-.115a38.075,38.075,0,0,1-5.457-1.565c-.262-.1-1.878-.785-.862-.328-.375-.169-.754-.331-1.124-.5q-1.178-.552-2.3-1.171a42.263,42.263,0,0,1-4.28-2.734c-.106-.078-.246-.183-.311-.235-.208-.165-.418-.328-.625-.494q-.466-.376-.919-.762-.964-.82-1.869-1.68a51.7,51.7,0,0,1-3.633-3.826q-.9-1.054-1.748-2.139c-.159-.2-.737-.984-.413-.538-.231-.317-.463-.633-.689-.953a81.7,81.7,0,0,1-9.354-17.784q-.826-2.123-1.558-4.272c-.129-.377-.253-.755-.38-1.133l-.031-.092-.055-.173c-.2-.653-.408-1.306-.6-1.96q-1.011-3.393-1.813-6.832c-.49-2.107-.953-4.228-1.257-6.368-.6-4.212-9.113-3-8.516,1.2.022.148.049.3.069.445a76.646,76.646,0,0,0,2.095,9.547,112.331,112.331,0,0,0,6.237,17.642c5.7,12.491,14.688,25.7,30.7,31.489,16.768,6.063,38.826.716,50.545-11.337,11.073-11.388,13.778-26.268,14.2-39.627.2-6.439.871-6.71-.221-13.054C474.286,489.148,472.324,488.7,470.773,488.977ZM437.85,547.031c.593-.153.221-.051,0,0Zm25.65-23.064Z" transform="translate(-372.13 -488.51)" fill="#7fc5a3"/></g><g transform="translate(118.138)"><g transform="translate(8.884 0.728)"><path d="M554.087,248.434l18.392-3.082a2.494,2.494,0,0,1,2.827,2.023q3.52,21.014,7.039,42.027.5,2.964.993,5.929c.524,3.126-4.316,3.942-4.84.811q-3.52-21.013-7.038-42.027-.294-1.749-.586-3.5L554.9,253.292C551.786,253.814,550.968,248.957,554.087,248.434Z" transform="translate(-552.117 -245.32)" fill="#ccd2d9"/></g><g transform="translate(0 1.489)"><path d="M540.925,257.367l5.584-.936-1.627-9.716-5.584.936a4.152,4.152,0,0,0-3.41,4.78l.256,1.528A4.153,4.153,0,0,0,540.925,257.367Z" transform="translate(-535.829 -246.715)" fill="#3b455a"/></g><g transform="translate(8.173)"><path d="M552.693,256.071l4.733-.793a4.8,4.8,0,0,0,3.94-5.523l-.3-1.766a4.8,4.8,0,0,0-5.525-3.938l-4.732.793Z" transform="translate(-550.813 -243.985)" fill="#ccd2d9"/></g></g><g transform="translate(60.531 7.751)"><g transform="translate(0 3.766)"><path d="M450.653,265.139l-18.392,3.082a2.494,2.494,0,0,0-2.013,2.834q3.52,21.014,7.039,42.027.5,2.964.993,5.929c.524,3.126,5.364,2.32,4.84-.811q-3.52-21.013-7.038-42.027-.293-1.749-.586-3.5L451.467,270C454.581,269.476,453.772,264.617,450.653,265.139Z" transform="translate(-430.215 -265.1)" fill="#ccd2d9"/></g><g transform="translate(13.262)"><g transform="translate(8.113)"><path d="M476.615,267.968l-5.585.936-1.628-9.716,5.584-.935a4.152,4.152,0,0,1,4.782,3.408l.256,1.528A4.151,4.151,0,0,1,476.615,267.968Z" transform="translate(-469.402 -258.195)" fill="#3b455a"/></g><g transform="translate(0 0.112)"><path d="M465.148,269.627l-4.732.793a4.8,4.8,0,0,1-5.525-3.938l-.3-1.766a4.8,4.8,0,0,1,3.94-5.523l4.733-.793Z" transform="translate(-454.529 -258.4)" fill="#ccd2d9"/></g></g></g><g transform="translate(123.975 136.354)" opacity="0.13"><path d="M546.53,496.366s.348,3.012.583,6.505l8.193-5.279-.568-3.624Z" transform="translate(-546.53 -493.968)"/></g><g transform="translate(67.108 47.545)"><path d="M535.15,334.442a142.49,142.49,0,0,1,3.2,26.768c.539,15.849-.918,33.468-10.309,46.815-9.939,14.125-29.843,20.133-45.675,12.679-15.117-7.117-24.294-22.931-30.394-37.845a170.923,170.923,0,0,1-6.953-21.035c-.988-3.739-1.967-7.539-2.585-11.362-.028-.177-.064-.352-.094-.529-.839-5,6.9-6.307,7.744-1.3.428,2.544,1,5.069,1.6,7.577q.973,4.092,2.139,8.136c.225.781.458,1.558.691,2.336.309,1.03-.183-.565.1.315.142.45.283.9.427,1.351q.823,2.56,1.728,5.093a118.465,118.465,0,0,0,9.827,21.251c.257.427.519.849.781,1.271-.491-.794.166.255.336.516q.852,1.3,1.755,2.566c1.133,1.584,2.332,3.122,3.6,4.6q.892,1.034,1.834,2.024.443.465.9.918c.2.2.406.4.608.6.165.161.827.761.087.09a44.628,44.628,0,0,0,4.339,3.5q1.071.75,2.193,1.425c.352.211.712.41,1.068.616-.964-.557.568.284.815.4a31.479,31.479,0,0,0,5.124,1.942c.177.05.359.091.535.145.912.277-.849-.156.09.024.412.08.821.173,1.235.248q1.47.263,2.962.381c.926.074,1.85.088,2.779.1.243,0,.953-.043-.005.008.2-.01.4-.015.6-.031.614-.047,1.227-.091,1.839-.16a46.376,46.376,0,0,0,6.3-1.269c.188-.048.742-.239-.112.04.244-.08.488-.159.731-.242q.646-.222,1.284-.468c1.009-.391,2-.83,2.966-1.318.769-.388,1.5-.829,2.251-1.253.842-.477-.693.5.092-.058.152-.108.311-.208.464-.314q.687-.473,1.349-.982.982-.755,1.9-1.586.508-.458,1-.937c.2-.192,1.383-1.479.639-.637a39.092,39.092,0,0,0,3.332-4.305q.681-1.029,1.3-2.1c.128-.222.82-1.529.323-.562.253-.494.506-.986.746-1.487a57.723,57.723,0,0,0,3.753-10.665c.047-.186.091-.373.136-.56-.222.916-.056.241-.006.01.091-.424.186-.847.274-1.272q.307-1.492.556-3c.318-1.912.568-3.835.763-5.764a113.653,113.653,0,0,0,.541-11.432q0-1.316-.027-2.631c-.009-.455-.023-.909-.034-1.364.03,1.222-.016-.395-.029-.693q-.109-2.59-.308-5.175-.349-4.561-.954-9.1c-.47-3.53-1.122-7.011-1.768-10.509-.031-.17-.073-.339-.111-.508a3.926,3.926,0,1,1,7.744-1.3Z" transform="translate(-442.274 -331.15)" fill="#7fc5a3"/></g><g transform="translate(88.719 102.062)"><g transform="translate(0 99.039)"><path d="M481.9,612.795l-.007-.029c.238-.062.356-.092.366-.093h0l.015,0,0,.014s0,.009-.013.016v0l-.011,0C482.219,612.719,482.127,612.743,481.9,612.795Z" transform="translate(-481.895 -612.67)" fill="#a0a2a5"/></g><g transform="translate(29.336 72.744)"><path d="M535.706,564.5l-.029-.011.012-.029.028.011Z" transform="translate(-535.678 -564.463)" fill="#a0a2a5"/></g><g transform="translate(32.773 22.486)"><path d="M541.982,472.364l0-.031c.073-.008.12-.01.136-.011l0,.031Z" transform="translate(-541.979 -472.322)" fill="#a0a2a5"/></g><g transform="translate(40.46 24.171)"><path d="M556.081,475.525l-.009-.029c.058-.019.248-.08.26-.082l.014,0,0,.014c0,.005,0,.01-.013.017h0A2.214,2.214,0,0,1,556.081,475.525Z" transform="translate(-556.072 -475.411)" fill="#a0a2a5"/></g><g transform="translate(59.917)"><path d="M591.773,431.448h0l-.03-.008v0l0-.009.044-.181.007-.029.027-.112V431.1l.03.007c-.014.056-.026.105-.035.148C591.8,431.318,591.789,431.383,591.773,431.448Z" transform="translate(-591.743 -431.098)" fill="#a0a2a5"/></g><g transform="translate(59.901 0.387)"><path d="M591.743,431.84l-.03-.006s0-.009.006-.026h0l.029.008A.192.192,0,0,0,591.743,431.84Z" transform="translate(-591.713 -431.808)" fill="#a0a2a5"/></g><g transform="translate(32.891 25.539)"><path d="M542.2,477.96v-.03h.02l.193-.009v.03l-.065,0-.147.006Z" transform="translate(-542.196 -477.92)" fill="#a0a2a5"/></g></g></g><g transform="translate(44.802 142.122)"><g transform="translate(0)"><g transform="translate(0 6.122)"><rect width="86.052" height="114.15" transform="translate(18.41 0) rotate(9.281)" fill="#3b455a"/></g><g transform="translate(7.13 22.887)" opacity="0.26"><path d="M150.654,486.392l1.271.208,74.619,14.568,15.441-106.863-3.648.427Z" transform="translate(-150.654 -394.306)" fill="#040909"/></g><g transform="translate(5.074 10.409)"><rect width="77.372" height="105.611" transform="translate(17.033) rotate(9.281)" fill="#f7f7f7"/></g><g transform="translate(14.154 9.943)" opacity="0.05"><path d="M171.13,370.574l54.922,8.975-62.521,36.971Z" transform="translate(-163.531 -370.574)"/></g><g transform="translate(43.285)"><g transform="translate(0 13.388)" opacity="0.12"><rect width="33.603" height="3.136" transform="matrix(0.987, 0.161, -0.161, 0.987, 0.506, 0)"/></g><g transform="translate(0)"><path d="M245.339,360.681l-.514-.084.056-.345c.531-3.249-2.083-6.381-5.836-6.994l-4.945-.808c-3.754-.613-7.228,1.523-7.759,4.772l-.056.345-.514-.084c-3.754-.614-7.228,1.523-7.759,4.772l-1.073,6.573,33.163,5.419,1.073-6.572C251.706,364.426,249.093,361.3,245.339,360.681Zm-5.438-.749-8.738-1.428a1.636,1.636,0,1,1,.527-3.228l8.738,1.428a1.636,1.636,0,1,1-.527,3.229Z" transform="translate(-216.939 -352.346)" fill="#bec6cc"/></g></g><g transform="translate(18.23 41.19)" opacity="0.47"><g transform="translate(6.732)"><path d="M197.062,429.7l-11.211-1.832a.6.6,0,0,0-.679.485q-.911,5.573-1.82,11.144a.6.6,0,0,0,.489.676l11.211,1.832a.544.544,0,0,0,.42-.091.219.219,0,0,0,.023-.015l.009-.006a.548.548,0,0,0,.227-.373l1.82-11.144A.6.6,0,0,0,197.062,429.7Zm-2.4,11.049-10.043-1.641q.816-4.992,1.631-9.983l10.043,1.641Q195.473,435.758,194.658,440.75Z" transform="translate(-183.345 -427.861)" fill="#c0c4c9"/></g><g transform="translate(3.366 20.606)"><path d="M190.891,467.478l-11.211-1.832a.6.6,0,0,0-.679.485q-.91,5.572-1.82,11.144a.6.6,0,0,0,.489.676l11.211,1.832a.544.544,0,0,0,.42-.091c.008,0,.015-.01.023-.015l.013-.01a.539.539,0,0,0,.223-.369q.911-5.572,1.821-11.144A.6.6,0,0,0,190.891,467.478Zm-2.4,11.049-10.043-1.641q.815-4.992,1.63-9.983l10.043,1.641Q189.3,473.535,188.486,478.527Z" transform="translate(-177.174 -465.638)" fill="#c0c4c9"/></g><g transform="translate(0 41.211)"><path d="M184.72,505.254l-11.211-1.832a.6.6,0,0,0-.679.485l-1.82,11.144a.6.6,0,0,0,.489.676l11.211,1.832a.548.548,0,0,0,.421-.091l.022-.015.013-.01a.538.538,0,0,0,.223-.369q.911-5.573,1.821-11.145A.6.6,0,0,0,184.72,505.254Zm-2.4,11.049-10.043-1.641q.815-4.992,1.631-9.983l10.043,1.641Q183.131,511.312,182.315,516.3Z" transform="translate(-171.003 -503.415)" fill="#c0c4c9"/></g></g><g transform="translate(30.555 41.583)"><path d="M193.6,433.03l2.716-.433,1.013,2.8,13.752-6.811,1.385.518-16.221,9.329Z" transform="translate(-193.599 -428.582)" fill="#d34e4e"/></g><g transform="translate(26.169 62.558)"><path d="M185.559,471.484l2.716-.433,1.013,2.8,13.752-6.811,1.385.518L188.2,476.884Z" transform="translate(-185.559 -467.036)" fill="#d34e4e"/></g><g transform="translate(22.75 82.023)"><path d="M179.29,507.169l2.716-.433,1.013,2.8,13.752-6.811,1.385.518-16.221,9.329Z" transform="translate(-179.29 -502.721)" fill="#d34e4e"/></g><g transform="translate(37.499 89.945)" opacity="0.32"><rect width="40.074" height="5.646" transform="translate(0.911 0) rotate(9.281)" fill="#8ec3cb"/></g><g transform="translate(41.064 68.121)" opacity="0.32"><rect width="40.074" height="5.646" transform="translate(0.911 0) rotate(9.281)" fill="#8ec3cb"/></g><g transform="translate(44.628 46.296)" opacity="0.32"><rect width="40.074" height="5.646" transform="translate(0.911 0) rotate(9.281)" fill="#8ec3cb"/></g></g></g><g transform="translate(339.845 163.683)"><g transform="translate(0 11.642)"><path d="M749.708,464.155,711.2,473.5a26.379,26.379,0,0,1-31.968-19.223h0a26.375,26.375,0,0,1,19.6-31.737l38.409-9.32Z" transform="translate(-678.496 -413.218)" fill="#e0e0e0"/></g><g transform="translate(60.203)"><path d="M801.237,454.124l43.294-10.594a24.379,24.379,0,0,0,17.943-29.442l-.868-3.577a24.38,24.38,0,0,0-29.441-17.942l-43.3,10.595Z" transform="translate(-788.868 -391.875)" fill="#3b455a"/></g><g transform="translate(20.332 27.827)"><path d="M745.3,451.437l-9.784,2.374-.916.223-1.709-7.041-.857-3.533a.763.763,0,0,0-.911-.548l-6.08,1.475a.762.762,0,0,0-.558.9q1.173,4.835,2.347,9.669.11.452.22.905l-7.125,1.729-3.575.867a.763.763,0,0,0-.558.9l1.458,6.009a.688.688,0,0,0,.334.457.7.7,0,0,0,.577.091l9.784-2.374.916-.223,1.709,7.041.858,3.533a.762.762,0,0,0,.91.548l6.081-1.475a.7.7,0,0,0,.464-.333.684.684,0,0,0,.094-.571l-2.347-9.668q-.109-.453-.22-.905l7.125-1.729,3.575-.867a.763.763,0,0,0,.559-.9l-1.459-6.009A.762.762,0,0,0,745.3,451.437Z" transform="translate(-715.772 -442.891)" fill="#3b455a"/></g></g><g transform="translate(288.089 147.356)"><g transform="translate(0 35.48)"><path d="M600,427.595l-4.922,1.556-4.006-2.162-.889.616.714,1.126-3.839-.843-2.836,1.461-.613,4.2,2.168,3.812,4.235.167,4.46-2.349,6.83-1.838Z" transform="translate(-583.609 -426.989)" fill="#c1796b"/></g><g transform="translate(12.206)"><path d="M605.988,398.369l22.935-5.378c2.058-.483,4.192-.586,6.25-1.084,3.009-.728,3.833-.982,4.256-3.851,1.225-8.317-.332-16.945.924-25.138,3.02-.3,5.934-1.016,9.016-.975,5.033.066,4.6,3.529,4.88,7.386.336,4.575.536,9.164.568,13.751.026,3.8,1.281,20.289-4.3,21.5-4,.877-44.331,3.025-44.314,3.851C606.192,408.094,605.988,398.369,605.988,398.369Z" transform="translate(-605.988 -361.941)" fill="#474ebb"/></g></g><g transform="translate(50.46 178.617)"><g transform="translate(28.303 19.54)"><path d="M201.56,455.111c.959-.3,8.081,1.488,7.61,2.111a13.057,13.057,0,0,1-1.806,1.8c2.03,1.238,8.384,3.393,3.851,5.7-1.964,1-7.194-.406-8.746-1.734l-.105-.091-2.521-6.737A3.622,3.622,0,0,1,201.56,455.111Z" transform="translate(-199.844 -455.077)" fill="#c1796b"/></g><path d="M147.955,419.253l28.271,20.531.032.086,2.521,6.737.655,1.75c-15.226-1.973-16.549-6.02-30.921-12.234Z" transform="translate(-147.955 -419.253)" fill="#8ec3cb"/></g></g></g></g></svg>