<svg xmlns="http://www.w3.org/2000/svg" width="2363" height="642.562" viewBox="0 0 2363 642.562"><g transform="translate(4324 2699.622)"><rect width="2363" height="385" transform="translate(-4324 -2442.061)" fill="#f1f2f2"/><g transform="translate(-3656 -3059)"><g transform="translate(608.06 258.01)"><g transform="translate(75.13 101.368)"><g transform="translate(285.832 14.891)"><path d="M649.276,131a3.349,3.349,0,0,1,.589.033c1.828.272,2.427,2.018,3.923,2.7.667.3,2.776-.286,2.707.926-.029.447,0,1.961-.062,3.482.405,1.2.757,2.42,1.273,3.576,1.307,2.926,7.515,7.565,4.731,10.972a7.212,7.212,0,0,1-1.828,1.762,6.2,6.2,0,0,1-1.971.655c-.532.1-1.352.4-1.791.1-.461-.308-.877-1.643-1.145-2.146l-2.3-4.307c-.752-1.408-1.77-3-3.363-3.1a7.771,7.771,0,0,1-1.045-.037,2.742,2.742,0,0,1-1.04-.541,18.763,18.763,0,0,1-3.224-2.93c-1.673-1.977-.562-5.881-.1-8.111a3.81,3.81,0,0,1,.6-1.577,4.068,4.068,0,0,1,2.431-1.195A8.128,8.128,0,0,1,649.276,131Z" transform="translate(-643.838 -130.995)" fill="#e5d1bd"/><path d="M684.738,197.5a22.981,22.981,0,0,1-5.619-2.423A20.538,20.538,0,0,1,675.5,191.8a97.693,97.693,0,0,1-16.84-25.1,36.21,36.21,0,0,1,12.126-7.357,156.665,156.665,0,0,0,16.886,18.308,18.969,18.969,0,0,0,4.043,3.08,20.228,20.228,0,0,0,7.106,1.689l28.315,3.182c5.694.64,11.59,1.346,16.5,4.307,13.6,8.208,5.273,26.495-9.35,24.061C717.867,211.237,700.593,202.717,684.738,197.5Z" transform="translate(-651.211 -145.094)" fill="#97d1ff"/></g><g transform="translate(331.903)"><g transform="translate(43.974 149.033)"><g transform="translate(84.398 123.633)"><path d="M1009.6,653.683a43.535,43.535,0,0,1-3.616,4.2,85.676,85.676,0,0,1-15.067-11.555c3.621-.89,3.954-4.166,8.611-1.293C1001.039,645.964,1007.042,652.413,1009.6,653.683Z" transform="translate(-990.92 -643.878)" fill="#e5d1bd"/><path d="M1010.464,663.44a2.83,2.83,0,0,0-.681,2.718,7.507,7.507,0,0,1,.3,1.8,4.258,4.258,0,0,1-.65,1.638c-1.676,2.957-6.291,9.237.724,9.115,6.371-.111,10.483-9.465,12.684-14.993a2,2,0,0,0,.251-1.122,2.727,2.727,0,0,0-.6-1.141c-1.592-1.935-3.535-4.414-6.078-2.573-1.085.786-1.074,2.223-2.229,3.05C1013.239,662.606,1011.3,662.614,1010.464,663.44Z" transform="translate(-998.614 -651.017)" fill="#4d4d4d"/></g><path d="M886.717,429.711c2.335,12.4-15.134,26.821-10.68,36.617,9.317,20.492,26.484,37.053,40.763,52.432,1.02,1.1,4.238,3.441,5.669,4.814-2.5,4.266-5.619,7.427-9.07,11.19-19.752-13.031-52.8-33.571-62.7-45.169-13.443-15.744-18.3-46.774-25.738-67.9-1.232-3.5-3.067-8.538-1.092-12.106,1.515-2.736,3.955-4.152,7.117-5.345,8.463-3.192,19.828-9.24,28.7-4.744C869.381,404.411,884.923,420.18,886.717,429.711Z" transform="translate(-822.996 -397.892)" fill="#8c9193"/></g><g transform="translate(0 140.685)"><g transform="translate(0 132.293)"><path d="M766.19,664.056c-1.895.391-3.8.2-5.7.407a92.868,92.868,0,0,1-2.806-19.963c3.33,2.183,5.854.132,7.134,5.751C765.232,652.07,765.137,661.212,766.19,664.056Z" transform="translate(-746.536 -644.5)" fill="#e5d1bd"/><path d="M748.257,677.2a3,3,0,0,0-2.433,1.5,13.6,13.6,0,0,1-1.01,1.556,3.342,3.342,0,0,1-1.609.7c-3.329.825-11.1,2-6.03,6.942,4.6,4.483,14.163.813,19.694-1.506a2.129,2.129,0,0,0,1-.616,2.717,2.717,0,0,0,.4-1.239c.295-2.475.7-5.754-2.417-6.279-1.328-.224-2.441.8-3.863.55C750.824,678.6,749.443,677.2,748.257,677.2Z" transform="translate(-735.503 -660.766)" fill="#4d4d4d"/></g><path d="M804.679,433.68c-9.112,9.1-35.189,15.776-39.432,26.249-1.7,4.2-7.3,35.268-8.155,57.142-.061,1.563.654,5.638.671,7.7-4.86,1.394-9.229,1.1-14.466,1.47C739.47,501.04,735.5,456.9,735.5,456.9c5.182-22.043,30.2-47.321,44.08-67.18,2.3-3.29,4.988-7.794,9.115-8.348,3.165-.425,5.664.694,8.51,2.545,7.614,4.951,30.633,12.856,32.32,22.721C831.373,417.42,811.68,426.69,804.679,433.68Z" transform="translate(-735.503 -381.282)" fill="#8c9193"/></g><path d="M824.96,203.461c7.932,6.967,19.877,13.339,24.642,23.033,11.526,23.453,18.519,48.634,22.159,74.365q1.6,11.288,3.194,22.576c1.048,7.4.787,9.123-5.276,9.667-11.236,1.009-34.453-1.525-45.328-5.6-5.175-1.94-10.155-4.789-15.466-6-7.725-1.76-14.9,1.776-22.376,1.259.777-7.908,2.542-15.4,2.716-23.532a223.148,223.148,0,0,0-1.053-24.364c-1.246-14.126-1.9-28.32-3.059-42.413-.833-10.094-2.932-18,3.954-26.526,3.748-4.642,10.621-12.7,16.836-12.6C812.5,193.445,820.278,199.349,824.96,203.461Z" transform="translate(-759.7 -147.109)" fill="#97d1ff"/><g transform="translate(23.327 14.785)"><path d="M787.243,159.13c2.3,2.17,5.187,3.584,7.8,5.363a17.725,17.725,0,0,1,5.511,6.224c1.107,1.863,2.444,3.127,4.973,2.5,4.77-1.185,1.971-4.389,1.9-7.515-.083-3.573,1.423-7.032,2.049-10.5,1.807-10.033-6.027-25.248-17.872-24.376C778.649,131.774,780.272,152.543,787.243,159.13Z" transform="translate(-781.916 -130.785)" fill="#e5d1bd"/></g><path d="M790.56,127.213a3.238,3.238,0,0,1,1.293,4.016c-.385.732-1.1,1.238-1.54,1.937-1.3,2.051.212,4.776,2.11,6.286s4.279,2.552,5.559,4.612c6.457-5.231,11.4-12.811,11.849-21.109a20.842,20.842,0,0,0-6.517-16.284c-5.234-4.76-10.528-4.5-17.34-5.079-2.8-.239-5.688-.47-8.381.347-2.453.745-4.582,2.314-7.01,3.134-4.021,1.358-9.128.865-11.718,4.227a7.5,7.5,0,0,0-.761,7.019,17.058,17.058,0,0,0,4.177,5.993,49.151,49.151,0,0,0,7.62,6.314c-1.3-.875,3.212-5.909,4.241-6.13,2.43-.522,6.278,2.238,8.767,2.832C785.306,125.9,788.438,125.844,790.56,127.213Z" transform="translate(-746.485 -101.368)" fill="#534741"/></g><g transform="translate(0 29.059)"><path d="M128.271,680.78h-15.8V650.692h31.593v13.572Z" transform="translate(-93.705 -403.661)" fill="#3a494c"/><path d="M464.1,679.406h15.8V649.319H448.306v13.572Z" transform="translate(-260.748 -402.977)" fill="#3a494c"/><rect width="235.665" height="257.808" rx="20.628" fill="#506266"/><rect width="200.359" height="213.902" rx="3.816" transform="translate(17.653 21.953)" fill="#343738"/></g><g transform="translate(141.537 41.094)"><path d="M518.172,183.137c-20.526.293-44.922,14.638-49.11,34.019-8.028-18.131-40.418-26.478-60.578-22.606-53.2,10.218-64.752,76.723-37.541,117.866,14.645,22.144,34.343,40.8,55.43,57.2,17.658,13.736,62.481,42.115,62.6,41.991.138.1,38.281-36.774,52.789-53.8,17.326-20.336,32.835-42.6,42.69-67.247C602.758,244.756,572.337,182.363,518.172,183.137Z" transform="translate(-356.739 -183.13)" fill="#d9245e"/><path d="M592.767,319.551l-42.052,5.472q-10.691-29.111-21.382-58.222c-1.03-2.805-4.972-2.183-5.536.567q-11,53.7-22,107.408-.638,3.111-1.274,6.221l-29.215-66.233-4.685-10.622c-.942-2.135-4.4-2.665-5.317-.16q-6.365,17.468-12.731,34.935l-47.193,4.832c-3.694.378-3.1,6.214.6,5.835l48.971-5.013a2.848,2.848,0,0,0,2.33-1.7q5.455-14.969,10.909-29.938l29.972,67.95,4.685,10.622a2.9,2.9,0,0,0,5.536-.566q11-53.7,22-107.408l1.052-5.138,18.69,50.892a2.933,2.933,0,0,0,2.987,1.859l44.252-5.759C597.04,324.907,596.458,319.07,592.767,319.551Z" transform="translate(-377.707 -223.841)" fill="#fff"/></g><g transform="translate(314.348 59.316)"><path d="M700.833,358.9a3.386,3.386,0,0,1,.2-.554c.794-1.669,2.639-1.731,3.724-2.963.484-.549.538-2.739,1.678-2.318.419.159,1.876.572,3.312,1.078,1.266-.037,2.535-.016,3.792-.172,3.18-.395,9.432-4.974,11.876-1.315a7.215,7.215,0,0,1,1.151,2.263,6.2,6.2,0,0,1,.049,2.077c-.056.539-.017,1.409-.426,1.743a7.6,7.6,0,0,1-2.386.468l-4.792.94c-1.567.308-3.384.816-3.947,2.31a7.78,7.78,0,0,1-.341.989,2.738,2.738,0,0,1-.822.836,18.762,18.762,0,0,1-3.745,2.226c-2.38,1.021-5.788-1.182-7.786-2.277a3.81,3.81,0,0,1-1.332-1.033,4.07,4.07,0,0,1-.432-2.674A8.2,8.2,0,0,1,700.833,358.9Z" transform="translate(-700.574 -284.973)" fill="#e5d1bd"/><path d="M776.99,281.775a22.964,22.964,0,0,1-3.959,4.665,20.556,20.556,0,0,1-4.193,2.5A97.691,97.691,0,0,1,739.91,297.7a36.213,36.213,0,0,1-3.49-13.748,156.579,156.579,0,0,0,22.446-10.794,18.957,18.957,0,0,0,4.128-2.966,20.214,20.214,0,0,0,3.693-6.3l11.324-26.146c2.278-5.258,4.677-10.69,8.943-14.516,11.828-10.609,26.879,2.707,20.275,15.978C799.815,254.112,786.616,268.139,776.99,281.775Z" transform="translate(-718.404 -219.386)" fill="#97d1ff"/></g><g transform="translate(11.217 21.923)"><g transform="translate(7.414)"><path d="M283.126,419.42,113.552,389c-.747-.134-1.352-1.142-1.352-2.251V177.684c0-1.109.6-2.117,1.352-2.251l169.574-30.415a1.981,1.981,0,0,1,2.244,2.191V417.228A1.981,1.981,0,0,1,283.126,419.42Z" transform="translate(-112.2 -144.987)" fill="#63767c"/><g transform="translate(39.225 80.739)"><path d="M276.487,362.122c0,33.256-21.286,58.433-45.87,56.375-22.911-1.917-40.372-27.106-40.372-56.375s17.46-54.458,40.372-56.376C255.2,303.69,276.487,328.867,276.487,362.122Z" transform="translate(-190.245 -305.629)" fill="#506266"/><path d="M274.15,375.027c0,25.206-16,44.61-34.768,43.4-17.777-1.145-31.515-20.552-31.515-43.4s13.738-42.255,31.515-43.4C258.151,330.417,274.15,349.82,274.15,375.027Z" transform="translate(-199.01 -318.533)" fill="#a4bbbc"/><path d="M271.086,403.017c0,8.524-5.314,15.314-11.757,15.169-6.322-.143-11.36-6.933-11.36-15.169s5.039-15.027,11.36-15.169C265.772,387.7,271.086,394.493,271.086,403.017Z" transform="translate(-218.956 -346.524)" fill="#4d4d4d"/><path d="M270.29,398.914a18.762,18.762,0,0,1,1.623,7.745c0,8.514-5.3,15.31-11.729,15.183-3.621-.072-6.816-2.333-8.879-5.786,1.953,4.471,5.606,7.543,9.838,7.639,6.446.145,11.763-6.647,11.763-15.173A18.2,18.2,0,0,0,270.29,398.914Z" transform="translate(-220.616 -352.029)" fill="#fff" opacity="0.11"/><g transform="translate(39.745 12.936)"><g transform="translate(0 75.493)"><path d="M270.895,492.245v-9.639c0-1.329-1.572-1.4-1.572-.077v9.616c0,1.326,1.572,1.43,1.572.1Z" transform="translate(-269.323 -481.571)" fill="#4d4d4d"/></g><path d="M270.895,341.953v-9.638c0-1.329-1.572-1.229-1.572.1v9.616c0,1.326,1.572,1.254,1.572-.077Z" transform="translate(-269.323 -331.367)" fill="#4d4d4d"/></g><g transform="translate(8.758 55.398)"><g transform="translate(0 0.464)"><path d="M208.364,418.8l6.744-.033c.941,0,.935-2-.008-1.988l-6.744.053c-.919.008-.913,1.972.008,1.968Z" transform="translate(-207.67 -416.774)" fill="#4d4d4d"/></g><g transform="translate(56.849)"><path d="M321.6,418.057l8-.039c1.118-.005,1.11-2.176-.009-2.167l-8,.064c-1.089.009-1.082,2.148.009,2.142Z" transform="translate(-320.779 -415.851)" fill="#4d4d4d"/></g></g><g transform="translate(17.957 23.83)"><g transform="translate(0 55.058)"><path d="M227.242,470.872l4.789-6.562c.666-.913-.415-2.342-1.08-1.428l-4.773,6.562c-.652.9.408,2.327,1.064,1.428Z" transform="translate(-225.973 -462.588)" fill="#4d4d4d"/></g><g transform="translate(39.379)"><path d="M305.751,362.2l5.389-7.385c.75-1.027-.466-2.448-1.215-1.419l-5.371,7.383c-.734,1.009.459,2.433,1.2,1.421Z" transform="translate(-304.325 -353.042)" fill="#4d4d4d"/></g></g><g transform="translate(19.109 24.454)"><path d="M228.446,355.962l4.524,6.9c.629.959,1.766-.4,1.134-1.357l-4.54-6.9c-.621-.944-1.738.414-1.118,1.359Z" transform="translate(-228.265 -354.283)" fill="#4d4d4d"/><g transform="translate(37.226 56.753)"><path d="M302.534,468.922l5.058,7.712c.7,1.073,1.975-.255,1.268-1.329l-5.076-7.717c-.694-1.055-1.943.278-1.25,1.334Z" transform="translate(-302.331 -467.202)" fill="#4d4d4d"/></g></g></g><path d="M403.573,420.437l-.083-.006a3.506,3.506,0,0,1-2.929-3.679v-85.52a3.5,3.5,0,0,1,2.929-3.671l.083-.005c1.628-.1,2.953,1.4,2.953,3.339v86.21C406.526,419.05,405.2,420.541,403.573,420.437Z" transform="translate(-255.631 -235.794)" fill="#798e91"/><path d="M0,0H3.369A2.031,2.031,0,0,1,5.4,2.031V272.4a2.031,2.031,0,0,1-2.031,2.031H0a0,0,0,0,1,0,0V0A0,0,0,0,1,0,0Z" transform="translate(170.926 0.031)" fill="#798e91"/></g><g transform="translate(1.697 64.589)"><path d="M114.217,294.524V280.194a6.7,6.7,0,1,0-13.393,0v14.331Z" transform="translate(-100.824 -273.497)" fill="#798e91"/><path d="M100.824,319.065V333.4a6.7,6.7,0,1,0,13.393,0V319.065Z" transform="translate(-100.824 -296.163)" fill="#798e91"/></g><g transform="translate(0 161.378)"><path d="M110.841,487.1V472.769a6.7,6.7,0,0,0-13.393,0V487.1Z" transform="translate(-97.448 -466.073)" fill="#798e91"/><path d="M97.448,511.641v14.331a6.7,6.7,0,1,0,13.393,0V511.641Z" transform="translate(-97.448 -488.739)" fill="#798e91"/></g></g></g></g></g></g></svg>