<svg id="Grupo_231" data-name="Grupo 231" xmlns="http://www.w3.org/2000/svg" width="547.416" height="345.743" viewBox="0 0 547.416 345.743">
  <g id="object">
    <g id="Grupo_202" data-name="Grupo 202" transform="translate(322.768 16.815)">
      <path id="Trazado_115" data-name="Trazado 115" d="M649.979,131a3.782,3.782,0,0,1,.665.037c2.064.307,2.741,2.279,4.43,3.044.753.341,3.135-.323,3.057,1.046-.033.5,0,2.215-.07,3.932.458,1.354.855,2.732,1.438,4.038,1.476,3.3,8.486,8.543,5.342,12.39a8.142,8.142,0,0,1-2.064,1.99,7,7,0,0,1-2.226.74c-.6.117-1.526.447-2.023.116-.521-.348-.99-1.855-1.293-2.423l-2.6-4.863c-.849-1.59-2-3.384-3.8-3.5a8.78,8.78,0,0,1-1.18-.042,3.1,3.1,0,0,1-1.174-.611,21.185,21.185,0,0,1-3.64-3.309c-1.889-2.233-.635-6.641-.112-9.16a4.3,4.3,0,0,1,.675-1.78,4.594,4.594,0,0,1,2.745-1.349A9.178,9.178,0,0,1,649.979,131Z" transform="translate(-643.837 -130.995)" fill="#e5d1bd"/>
      <path id="Trazado_116" data-name="Trazado 116" d="M688.108,202.43a25.949,25.949,0,0,1-6.345-2.736,23.2,23.2,0,0,1-4.085-3.7,110.314,110.314,0,0,1-19.016-28.343,40.889,40.889,0,0,1,13.693-8.308,176.9,176.9,0,0,0,19.068,20.674,21.42,21.42,0,0,0,4.566,3.478,22.841,22.841,0,0,0,8.024,1.908l31.974,3.594c6.43.723,13.088,1.52,18.628,4.863,15.362,9.269,5.954,29.918-10.558,27.171C725.517,217.943,706.011,208.322,688.108,202.43Z" transform="translate(-650.248 -143.253)" fill="#97d1ff"/>
    </g>
    <g id="Grupo_208" data-name="Grupo 208" transform="translate(374.793)">
      <g id="Grupo_204" data-name="Grupo 204" transform="translate(49.657 168.291)">
        <g id="Grupo_203" data-name="Grupo 203" transform="translate(95.305 139.609)">
          <path id="Trazado_117" data-name="Trazado 117" d="M1012.018,654.95a49.168,49.168,0,0,1-4.083,4.742,96.741,96.741,0,0,1-17.014-13.048c4.089-1,4.465-4.7,9.724-1.46C1002.346,646.233,1009.125,653.516,1012.018,654.95Z" transform="translate(-990.92 -643.878)" fill="#e5d1bd"/>
          <path id="Trazado_118" data-name="Trazado 118" d="M1010.99,664.113a3.2,3.2,0,0,0-.769,3.069,8.478,8.478,0,0,1,.338,2.028,4.806,4.806,0,0,1-.734,1.85c-1.892,3.339-7.1,10.431.818,10.293,7.194-.125,11.838-10.689,14.323-16.93a2.253,2.253,0,0,0,.283-1.267,3.081,3.081,0,0,0-.677-1.288c-1.8-2.185-3.991-4.985-6.863-2.905-1.225.887-1.213,2.511-2.517,3.444C1014.124,663.171,1011.935,663.181,1010.99,664.113Z" transform="translate(-997.609 -650.085)" fill="#4d4d4d"/>
        </g>
        <path id="Trazado_119" data-name="Trazado 119" d="M894.951,433.822c2.636,14.007-17.09,30.287-12.06,41.349,10.521,23.14,29.907,41.841,46.03,59.208,1.152,1.241,4.786,3.885,6.4,5.436-2.824,4.817-6.345,8.387-10.242,12.636-22.3-14.714-59.621-37.909-70.8-51.006-15.18-17.778-20.669-52.818-29.064-76.679-1.391-3.953-3.463-9.641-1.233-13.67,1.711-3.09,4.466-4.689,8.037-6.035,9.557-3.6,22.39-10.434,32.408-5.357C875.375,405.253,892.925,423.06,894.951,433.822Z" transform="translate(-822.996 -397.892)" fill="#8c9193"/>
      </g>
      <g id="Grupo_206" data-name="Grupo 206" transform="translate(0 158.865)">
        <g id="Grupo_205" data-name="Grupo 205" transform="translate(0 149.389)">
          <path id="Trazado_120" data-name="Trazado 120" d="M767.289,666.583c-2.14.441-4.294.226-6.437.46a104.863,104.863,0,0,1-3.169-22.543c3.761,2.465,6.61.149,8.056,6.494C766.208,653.048,766.1,663.372,767.289,666.583Z" transform="translate(-745.095 -644.5)" fill="#e5d1bd"/>
          <path id="Trazado_121" data-name="Trazado 121" d="M749.9,677.2c-1.339,0-2.007.781-2.748,1.7a15.36,15.36,0,0,1-1.14,1.757,3.775,3.775,0,0,1-1.817.79c-3.759.931-12.535,2.264-6.809,7.839,5.2,5.063,15.994.918,22.239-1.7a2.4,2.4,0,0,0,1.133-.7,3.068,3.068,0,0,0,.447-1.4c.333-2.8.786-6.5-2.729-7.091-1.5-.253-2.756.908-4.362.621C752.8,678.785,751.244,677.2,749.9,677.2Z" transform="translate(-735.503 -658.642)" fill="#4d4d4d"/>
        </g>
        <path id="Trazado_122" data-name="Trazado 122" d="M813.618,440.451c-10.289,10.273-39.736,17.815-44.528,29.641-1.922,4.743-8.246,39.825-9.209,64.526-.069,1.765.739,6.367.758,8.7-5.488,1.574-10.422,1.244-16.336,1.66-4.321-28.461-8.8-78.305-8.8-78.305,5.852-24.891,34.1-53.436,49.776-75.861,2.6-3.715,5.633-8.8,10.293-9.426,3.574-.479,6.4.784,9.609,2.874,8.6,5.591,34.591,14.517,36.5,25.657C843.761,422.089,821.523,432.557,813.618,440.451Z" transform="translate(-735.503 -381.282)" fill="#8c9193"/>
      </g>
      <path id="Trazado_123" data-name="Trazado 123" d="M830.234,204.77c8.957,7.867,22.445,15.063,27.826,26.01,13.016,26.483,20.912,54.919,25.022,83.975q1.8,12.747,3.606,25.494c1.183,8.361.889,10.3-5.958,10.916-12.687,1.139-38.9-1.723-51.185-6.325-5.843-2.191-11.467-5.408-17.465-6.775-8.723-1.987-16.829,2.006-25.267,1.422.878-8.93,2.871-17.39,3.068-26.573a252,252,0,0,0-1.19-27.512c-1.407-15.951-2.141-31.979-3.454-47.894-.941-11.4-3.311-20.324,4.465-29.954,4.233-5.242,11.993-14.346,19.012-14.223C816.161,193.46,824.947,200.127,830.234,204.77Z" transform="translate(-756.541 -141.136)" fill="#97d1ff"/>
      <g id="Grupo_207" data-name="Grupo 207" transform="translate(26.341 16.695)">
        <path id="Trazado_124" data-name="Trazado 124" d="M787.931,162.793c2.594,2.451,5.858,4.048,8.808,6.056a20.015,20.015,0,0,1,6.223,7.028c1.25,2.1,2.76,3.531,5.616,2.822,5.386-1.338,2.226-4.956,2.143-8.486-.094-4.035,1.607-7.941,2.313-11.862,2.041-11.33-6.806-28.51-20.182-27.525C778.227,131.9,780.06,155.355,787.931,162.793Z" transform="translate(-781.916 -130.785)" fill="#e5d1bd"/>
      </g>
      <path id="Trazado_125" data-name="Trazado 125" d="M794.821,130.552a3.657,3.657,0,0,1,1.46,4.535c-.435.826-1.24,1.4-1.739,2.187-1.463,2.316.24,5.393,2.383,7.1s4.832,2.882,6.277,5.208c7.291-5.907,12.871-14.467,13.38-23.836a23.535,23.535,0,0,0-7.359-18.388c-5.911-5.375-11.888-5.08-19.58-5.736-3.166-.27-6.423-.531-9.464.392-2.77.841-5.174,2.614-7.916,3.539-4.54,1.533-10.307.977-13.232,4.773a8.467,8.467,0,0,0-.859,7.926,19.262,19.262,0,0,0,4.717,6.768,55.5,55.5,0,0,0,8.605,7.13c-1.472-.988,3.627-6.673,4.789-6.922,2.744-.59,7.09,2.527,9.9,3.2C788.889,129.071,792.425,129.007,794.821,130.552Z" transform="translate(-745.051 -101.368)" fill="#534741"/>
    </g>
    <g id="Grupo_209" data-name="Grupo 209" transform="translate(0 32.814)">
      <path id="Trazado_126" data-name="Trazado 126" d="M130.313,684.668H112.475V650.692H148.15v15.326Z" transform="translate(-91.28 -371.739)" fill="#3a494c"/>
      <path id="Trazado_127" data-name="Trazado 127" d="M466.144,683.294h17.838V649.319H448.306v15.326Z" transform="translate(-236.511 -371.145)" fill="#3a494c"/>
      <rect id="Rectángulo_47" data-name="Rectángulo 47" width="266.119" height="291.123" rx="20.628" fill="#506266"/>
      <rect id="Rectángulo_48" data-name="Rectángulo 48" width="226.25" height="241.543" rx="3.816" transform="translate(19.934 24.79)" fill="#343738"/>
    </g>
    <g id="Grupo_210" data-name="Grupo 210" transform="translate(159.826 46.404)">
      <path id="Trazado_128" data-name="Trazado 128" d="M539.032,183.138c-23.178.331-50.727,16.529-55.456,38.415-9.065-20.474-45.641-29.9-68.406-25.527-60.073,11.538-73.119,86.638-42.392,133.1,16.538,25.005,38.781,46.072,62.592,64.595,19.94,15.511,70.555,47.557,70.685,47.417.156.111,43.228-41.526,59.611-60.756,19.565-22.964,37.078-48.1,48.206-75.937C634.549,252.72,600.2,182.264,539.032,183.138Z" transform="translate(-356.739 -183.13)" fill="#d9245e"/>
      <path id="Trazado_129" data-name="Trazado 129" d="M617.819,326.6l-47.487,6.179q-12.073-32.873-24.145-65.745c-1.163-3.168-5.615-2.465-6.251.64Q527.519,328.321,515.1,388.964q-.72,3.513-1.439,7.025L480.671,321.2l-5.291-12c-1.064-2.41-4.974-3.009-6-.181Q462.188,328.747,455,348.471l-53.292,5.456c-4.171.427-3.5,7.017.674,6.589l55.3-5.661a3.216,3.216,0,0,0,2.632-1.918q6.159-16.9,12.319-33.807l33.845,76.73,5.291,12a3.272,3.272,0,0,0,6.251-.64q12.418-60.644,24.838-121.288l1.189-5.8q10.552,28.735,21.1,57.469a3.312,3.312,0,0,0,3.373,2.1l49.97-6.5C622.645,332.651,621.988,326.06,617.819,326.6Z" transform="translate(-374.969 -218.525)" fill="#fff"/>
    </g>
    <g id="Grupo_211" data-name="Grupo 211" transform="translate(354.969 66.981)">
      <path id="Trazado_130" data-name="Trazado 130" d="M700.866,359.886a3.826,3.826,0,0,1,.231-.625c.9-1.884,2.98-1.954,4.206-3.346.547-.62.608-3.093,1.895-2.618.473.179,2.118.646,3.74,1.217,1.429-.042,2.863-.018,4.282-.194,3.591-.446,10.651-5.616,13.411-1.485a8.147,8.147,0,0,1,1.3,2.555,7.007,7.007,0,0,1,.056,2.345c-.063.609-.019,1.591-.481,1.968-.485.4-2.064.4-2.695.528l-5.411,1.062c-1.769.347-3.821.922-4.458,2.608a8.786,8.786,0,0,1-.385,1.116,3.092,3.092,0,0,1-.928.944,21.189,21.189,0,0,1-4.229,2.514c-2.688,1.153-6.536-1.335-8.792-2.572a4.3,4.3,0,0,1-1.5-1.167,4.6,4.6,0,0,1-.488-3.02A9.25,9.25,0,0,1,700.866,359.886Z" transform="translate(-700.574 -276.409)" fill="#e5d1bd"/>
      <path id="Trazado_131" data-name="Trazado 131" d="M782.232,289.837a25.922,25.922,0,0,1-4.471,5.267,23.2,23.2,0,0,1-4.735,2.823,110.314,110.314,0,0,1-32.665,9.9A40.89,40.89,0,0,1,736.42,292.3a176.812,176.812,0,0,0,25.347-12.189,21.408,21.408,0,0,0,4.661-3.349,22.827,22.827,0,0,0,4.17-7.115l12.787-29.524c2.572-5.938,5.282-12.071,10.1-16.392,13.356-11.98,30.352,3.056,22.9,18.043C808.007,258.6,793.1,274.439,782.232,289.837Z" transform="translate(-716.076 -219.386)" fill="#97d1ff"/>
    </g>
    <g id="Grupo_230" data-name="Grupo 230" transform="translate(12.666 24.756)">
      <g id="Grupo_227" data-name="Grupo 227" transform="translate(8.372)">
        <g id="Grupo_226" data-name="Grupo 226">
          <path id="Trazado_132" data-name="Trazado 132" d="M305.213,454.883,113.727,420.537c-.844-.152-1.527-1.289-1.527-2.542V181.909c0-1.253.683-2.391,1.527-2.541l191.487-34.346a2.237,2.237,0,0,1,2.534,2.474V452.408A2.237,2.237,0,0,1,305.213,454.883Z" transform="translate(-112.2 -144.987)" fill="#63767c"/>
          <g id="Grupo_225" data-name="Grupo 225" transform="translate(44.294 91.172)">
            <g id="Grupo_212" data-name="Grupo 212">
              <path id="Trazado_133" data-name="Trazado 133" d="M287.632,369.423c0,37.553-24.037,65.984-51.8,63.66-25.872-2.165-45.589-30.609-45.589-63.66s19.717-61.5,45.589-63.661C263.595,303.439,287.632,331.87,287.632,369.423Z" transform="translate(-190.245 -305.629)" fill="#506266"/>
            </g>
            <path id="Trazado_134" data-name="Trazado 134" d="M282.716,380.642c0,28.464-18.067,50.374-39.261,49.009-20.075-1.293-35.587-23.208-35.587-49.009s15.513-47.715,35.587-49.009C264.648,330.267,282.716,352.178,282.716,380.642Z" transform="translate(-197.866 -316.848)" fill="#a4bbbc"/>
            <path id="Trazado_135" data-name="Trazado 135" d="M274.073,404.977c0,9.625-6,17.293-13.277,17.129-7.139-.161-12.828-7.829-12.828-17.129s5.69-16.969,12.828-17.129C268.072,387.684,274.073,395.352,274.073,404.977Z" transform="translate(-215.208 -341.184)" fill="#4d4d4d"/>
            <path id="Trazado_136" data-name="Trazado 136" d="M272.743,398.914a21.186,21.186,0,0,1,1.833,8.746c0,9.614-5.987,17.289-13.244,17.145-4.089-.081-7.7-2.635-10.027-6.534,2.206,5.048,6.33,8.518,11.11,8.626,7.279.164,13.283-7.506,13.283-17.133A20.556,20.556,0,0,0,272.743,398.914Z" transform="translate(-216.651 -345.97)" fill="#fff" opacity="0.11"/>
            <g id="Grupo_215" data-name="Grupo 215" transform="translate(44.881 14.607)">
              <g id="Grupo_213" data-name="Grupo 213" transform="translate(0 85.248)">
                <path id="Trazado_137" data-name="Trazado 137" d="M271.1,493.624V482.74c0-1.5-1.775-1.586-1.775-.087v10.859c0,1.5,1.775,1.615,1.775.112Z" transform="translate(-269.323 -481.571)" fill="#4d4d4d"/>
              </g>
              <g id="Grupo_214" data-name="Grupo 214">
                <path id="Trazado_138" data-name="Trazado 138" d="M271.1,343.321V332.437c0-1.5-1.775-1.388-1.775.112v10.858c0,1.5,1.775,1.417,1.775-.087Z" transform="translate(-269.323 -331.367)" fill="#4d4d4d"/>
              </g>
            </g>
            <g id="Grupo_218" data-name="Grupo 218" transform="translate(9.89 62.556)">
              <g id="Grupo_216" data-name="Grupo 216" transform="translate(0 0.524)">
                <path id="Trazado_139" data-name="Trazado 139" d="M208.453,419.057l7.616-.037c1.062-.005,1.056-2.254-.009-2.245l-7.616.06c-1.037.009-1.031,2.227.009,2.223Z" transform="translate(-207.67 -416.774)" fill="#4d4d4d"/>
              </g>
              <g id="Grupo_217" data-name="Grupo 217" transform="translate(64.195)">
                <path id="Trazado_140" data-name="Trazado 140" d="M321.707,418.342l9.035-.044c1.262-.006,1.254-2.457-.01-2.447l-9.034.072c-1.23.01-1.222,2.425.01,2.419Z" transform="translate(-320.779 -415.851)" fill="#4d4d4d"/>
              </g>
            </g>
            <g id="Grupo_221" data-name="Grupo 221" transform="translate(20.278 26.909)">
              <g id="Grupo_219" data-name="Grupo 219" transform="translate(0 62.173)">
                <path id="Trazado_141" data-name="Trazado 141" d="M227.406,471.943l5.408-7.41c.752-1.031-.468-2.645-1.219-1.613l-5.39,7.411c-.737,1.014.461,2.628,1.2,1.613Z" transform="translate(-225.973 -462.588)" fill="#4d4d4d"/>
              </g>
              <g id="Grupo_220" data-name="Grupo 220" transform="translate(44.468)">
                <path id="Trazado_142" data-name="Trazado 142" d="M305.935,363.387l6.085-8.339c.847-1.16-.527-2.765-1.372-1.6l-6.065,8.337c-.829,1.14.518,2.747,1.351,1.6Z" transform="translate(-304.325 -353.042)" fill="#4d4d4d"/>
              </g>
            </g>
            <g id="Grupo_224" data-name="Grupo 224" transform="translate(21.578 27.613)">
              <g id="Grupo_222" data-name="Grupo 222">
                <path id="Trazado_143" data-name="Trazado 143" d="M228.47,356.179l5.109,7.791c.71,1.083,1.994-.447,1.28-1.532l-5.127-7.794c-.7-1.066-1.963.467-1.263,1.535Z" transform="translate(-228.265 -354.283)" fill="#4d4d4d"/>
              </g>
              <g id="Grupo_223" data-name="Grupo 223" transform="translate(42.036 64.087)">
                <path id="Trazado_144" data-name="Trazado 144" d="M302.56,469.144l5.712,8.709c.794,1.211,2.23-.288,1.432-1.5l-5.732-8.714c-.784-1.191-2.194.314-1.411,1.506Z" transform="translate(-302.331 -467.202)" fill="#4d4d4d"/>
              </g>
            </g>
          </g>
          <path id="Trazado_145" data-name="Trazado 145" d="M403.962,432.44l-.094-.006c-1.83-.117-3.308-1.976-3.308-4.154V331.709c0-2.178,1.478-4.034,3.308-4.146l.094-.006c1.839-.112,3.335,1.575,3.335,3.77v97.351C407.3,430.873,405.8,432.557,403.962,432.44Z" transform="translate(-236.903 -223.937)" fill="#798e91"/>
        </g>
        <path id="Rectángulo_49" data-name="Rectángulo 49" d="M0,0H4.067A2.031,2.031,0,0,1,6.1,2.031V307.865A2.031,2.031,0,0,1,4.067,309.9H0a0,0,0,0,1,0,0V0A0,0,0,0,1,0,0Z" transform="translate(193.013 0.035)" fill="#798e91"/>
      </g>
      <g id="Grupo_228" data-name="Grupo 228" transform="translate(1.916 72.936)">
        <path id="Trazado_146" data-name="Trazado 146" d="M115.948,297.242V281.059a7.562,7.562,0,1,0-15.124,0v16.182Z" transform="translate(-100.824 -273.497)" fill="#798e91"/>
        <path id="Trazado_147" data-name="Trazado 147" d="M100.824,319.065v16.182a7.562,7.562,0,0,0,15.124,0V319.065Z" transform="translate(-100.824 -293.203)" fill="#798e91"/>
      </g>
      <g id="Grupo_229" data-name="Grupo 229" transform="translate(0 182.232)">
        <path id="Trazado_148" data-name="Trazado 148" d="M112.572,489.818V473.634a7.562,7.562,0,0,0-15.124,0v16.183Z" transform="translate(-97.448 -466.073)" fill="#798e91"/>
        <path id="Trazado_149" data-name="Trazado 149" d="M97.448,511.641v16.182a7.562,7.562,0,1,0,15.124,0V511.641Z" transform="translate(-97.448 -485.779)" fill="#798e91"/>
      </g>
    </g>
  </g>
</svg>
