<svg id="for-light-bg" xmlns="http://www.w3.org/2000/svg" width="179.115" height="35.67" viewBox="0 0 179.115 35.67">
  <defs>
    <style>
      .cls-1 {
        fill: #2f8deb;
      }

      .cls-2 {
        fill: #a0d6fa;
      }

      .cls-3 {
        fill: #fff;
      }

      .cls-4 {
        fill: #262b33;
      }
    </style>
  </defs>
  <path id="Trazado_14" data-name="Trazado 14" class="cls-1" d="M32.227,5.315H6.68a.882.882,0,0,0-.885.879V17.371H20.088a.882.882,0,0,1,.885.879V32.444H32.227a.882.882,0,0,0,.885-.879V6.194a.882.882,0,0,0-.885-.879Z" transform="translate(2.804 -5.315)"/>
  <path id="Trazado_15" data-name="Trazado 15" class="cls-2" d="M24.215,13.705a.882.882,0,0,0-.885-.879H1.323a.882.882,0,0,0-.885.879V35.56a.882.882,0,0,0,.885.879H23.33a.882.882,0,0,0,.885-.879V27.9H23.3A14.254,14.254,0,0,1,9.039,13.726l0-.9H23.33a.882.882,0,0,1,.885.879Z" transform="translate(-0.438 -0.769)"/>
  <path id="Trazado_16" data-name="Trazado 16" class="cls-3" d="M14.682,22.216l.008,0,.905,0Z" transform="translate(8.182 4.914)"/>
  <path id="Trazado_17" data-name="Trazado 17" class="cls-3" d="M20.088,12.826H5.8l0,.9A14.255,14.255,0,0,0,20.061,27.9h.913V13.705a.882.882,0,0,0-.885-.879Z" transform="translate(2.804 -0.769)"/>
  <path id="Trazado_18" data-name="Trazado 18" class="cls-4" d="M41.632,14.564v3.044a3.665,3.665,0,0,0-4.767,3.551v8.625H33.8V14.565h2.214l.681,1.522a5.237,5.237,0,0,1,3.917-1.691,2.468,2.468,0,0,1,1.021.169Zm15.6,10.823a6.766,6.766,0,0,1-6.641,4.566c-4.087,0-7.323-3.213-7.323-7.779s3.235-7.779,7.152-7.779,7.152,3.213,7.152,7.779a6.364,6.364,0,0,1-.17,1.353h-10.9A4.181,4.181,0,0,0,54,25.386h3.235Zm-10.728-4.4H54.68a4.113,4.113,0,0,0-4.257-3.72A4.03,4.03,0,0,0,46.507,20.989Zm16.363,3.89a2.4,2.4,0,0,0,2.724,2.2c1.873,0,2.724-.846,2.724-1.86,0-2.706-8.173-.846-8.173-6.257,0-2.537,2.044-4.567,5.279-4.567,3.576,0,5.449,1.86,5.62,4.735H67.978a2.334,2.334,0,0,0-2.554-1.86c-1.532,0-2.384.846-2.384,1.691,0,2.706,8.173.846,8.173,6.257,0,2.706-2.043,4.735-5.62,4.735-3.746,0-5.62-1.86-5.79-5.073h3.065ZM74.09,23.357V14.563h3.065v8.794a3.661,3.661,0,1,0,7.322,0V14.563h3.065v15.22H85.329l-.682-1.522a5.746,5.746,0,0,1-4.427,1.691c-3.405,0-6.129-2.706-6.129-6.6Zm38.271-2.706v9.132H109.3V20.651a2.93,2.93,0,1,0-5.79,0v9.132h-3.065V20.651a2.93,2.93,0,1,0-5.79,0v9.132H91.587V14.564H93.8l.681,1.522a5,5,0,0,1,8,.677,5.813,5.813,0,0,1,4.6-2.368c2.9,0,5.279,2.367,5.279,6.257Zm17.106,4.735a6.765,6.765,0,0,1-6.641,4.566c-4.087,0-7.323-3.213-7.323-7.779s3.235-7.779,7.152-7.779,7.152,3.213,7.152,7.779a6.364,6.364,0,0,1-.17,1.353h-10.9a4.181,4.181,0,0,0,7.493,1.86h3.235Zm-10.727-4.4h8.173a4.113,4.113,0,0,0-4.257-3.72A4.029,4.029,0,0,0,118.741,20.989Zm14.367,9.164a1.86,1.86,0,1,1,1.873-1.86A1.883,1.883,0,0,1,133.108,30.153Zm5.029-19.818a1.873,1.873,0,1,1,1.873,1.86A1.883,1.883,0,0,1,138.137,10.336Zm3.406,19.448h-3.065V14.564h3.065Zm10.5.169c-4.087,0-7.323-3.213-7.323-7.779s3.235-7.779,7.323-7.779,7.322,3.213,7.322,7.779S156.128,29.952,152.041,29.952Zm0-12.683c-2.214,0-4.257,2.029-4.257,4.9s2.044,4.9,4.257,4.9,4.257-2.03,4.257-4.9S154.255,17.269,152.041,17.269Z" transform="translate(19.752 -3.402)"/>
</svg>
