<svg id="object" xmlns="http://www.w3.org/2000/svg" width="537.683" height="381.007" viewBox="0 0 537.683 381.007">
  <defs>
    <style>
      .cls-1 {
        fill: #d34e4e;
      }

      .cls-2, .cls-7 {
        opacity: 0.12;
      }

      .cls-2 {
        mix-blend-mode: multiply;
        isolation: isolate;
      }

      .cls-3 {
        fill: #fff;
      }

      .cls-4 {
        fill: #3b455a;
      }

      .cls-5 {
        fill: #8ec3cb;
      }

      .cls-6 {
        fill: #474ebb;
      }

      .cls-8 {
        opacity: 0.17;
      }

      .cls-9 {
        fill: #dbe8eb;
      }

      .cls-10 {
        fill: #ccd2d9;
      }

      .cls-11 {
        fill: #efbfa5;
      }

      .cls-12 {
        fill: #ebb044;
      }

      .cls-13 {
        fill: #c1796b;
      }

      .cls-14 {
        fill: #3a332d;
      }

      .cls-15 {
        fill: #3e3d3b;
      }

      .cls-16 {
        fill: #e1cfb5;
      }

      .cls-17 {
        opacity: 0.13;
      }

      .cls-18 {
        fill: #7fc5a3;
      }

      .cls-19 {
        fill: #a0a2a5;
      }

      .cls-20 {
        opacity: 0.26;
      }

      .cls-21 {
        fill: #040909;
      }

      .cls-22 {
        fill: #f7f7f7;
      }

      .cls-23 {
        opacity: 0.05;
      }

      .cls-24 {
        fill: #bec6cc;
      }

      .cls-25 {
        opacity: 0.47;
      }

      .cls-26 {
        fill: #c0c4c9;
      }

      .cls-27 {
        opacity: 0.32;
      }

      .cls-28 {
        fill: #e0e0e0;
      }
    </style>
  </defs>
  <g id="Grupo_200" data-name="Grupo 200" transform="translate(0)">
    <g id="Grupo_20" data-name="Grupo 20" transform="translate(77.158)">
      <g id="Grupo_15" data-name="Grupo 15">
        <g id="Grupo_14" data-name="Grupo 14">
          <path id="Trazado_20" data-name="Trazado 20" class="cls-1" d="M268.153,92.048c-11.088,1.27-23.667,9.811-25.1,19.777-5.12-8.669-23-11.091-33.733-8.043-28.333,8.043-31.728,42.086-15.246,61.267,8.871,10.323,20.325,18.618,32.434,25.705,10.139,5.935,35.6,17.74,35.656,17.671.079.042,19.126-20.569,26.242-29.917,8.5-11.164,15.931-23.195,20.2-36.118C316.546,118.377,297.415,88.7,268.153,92.048Z" transform="translate(-184.158 -91.788)"/>
        </g>
      </g>
      <g id="Grupo_17" data-name="Grupo 17" class="cls-2" transform="translate(56.507 38.051)">
        <g id="Grupo_16" data-name="Grupo 16">
          <path id="Trazado_21" data-name="Trazado 21" d="M341.306,171.651A159.606,159.606,0,0,1,321.5,200.3c-7.388,8.485-16.446,16.4-27.309,20.589a40.237,40.237,0,0,1-15.772,2.77c10.587,5.272,22,10.544,22.043,10.5.079.041,19.126-20.569,26.242-29.917,8.5-11.164,15.931-23.195,20.2-36.118a36.347,36.347,0,0,0,1.771-12.856A115.781,115.781,0,0,1,341.306,171.651Z" transform="translate(-278.422 -155.264)"/>
        </g>
      </g>
      <g id="Grupo_19" data-name="Grupo 19" transform="translate(13.407 21.591)">
        <g id="Grupo_18" data-name="Grupo 18">
          <path id="Trazado_22" data-name="Trazado 22" class="cls-3" d="M310.222,151.62l-22.508,5.05-14.063-28.08a1.614,1.614,0,0,0-2.969.587q-3.644,27.581-7.288,55.162-.211,1.6-.422,3.2l-18.643-31.676-2.99-5.08c-.6-1.021-2.5-1.1-2.883.21q-2.693,9.123-5.386,18.247l-25.316,5.008a1.478,1.478,0,1,0,.573,2.9l26.271-5.2a1.574,1.574,0,0,0,1.188-.981q2.307-7.818,4.616-15.637l19.126,32.5,2.99,5.08a1.615,1.615,0,0,0,2.969-.588q3.644-27.582,7.288-55.162.174-1.32.348-2.639l12.292,24.545a1.58,1.58,0,0,0,1.7.77l23.686-5.314A1.478,1.478,0,1,0,310.222,151.62Z" transform="translate(-206.523 -127.805)"/>
        </g>
      </g>
    </g>
    <g id="Grupo_37" data-name="Grupo 37" transform="translate(391.689 30.951)">
      <g id="Grupo_21" data-name="Grupo 21">
        <path id="Trazado_23" data-name="Trazado 23" class="cls-4" d="M735.394,156.156h0a.649.649,0,0,1-.863.313l-25.3-11.811a.649.649,0,0,1-.314-.863h0a.649.649,0,0,1,.863-.314l25.3,11.811A.649.649,0,0,1,735.394,156.156Z" transform="translate(-708.852 -143.42)"/>
      </g>
      <g id="Grupo_22" data-name="Grupo 22" transform="translate(15.15 6.488)">
        <path id="Trazado_24" data-name="Trazado 24" class="cls-5" d="M750.008,160.705l-1.412,3.026-13.506-6.3a1.671,1.671,0,0,1-.807-2.22h0a1.67,1.67,0,0,1,2.22-.807Z" transform="translate(-734.125 -154.244)"/>
      </g>
      <g id="Grupo_36" data-name="Grupo 36" transform="translate(24.373 5.316)">
        <g id="Grupo_25" data-name="Grupo 25" transform="translate(91.912 50.92)">
          <g id="Grupo_23" data-name="Grupo 23">
            <path id="Trazado_25" data-name="Trazado 25" class="cls-6" d="M926.836,242.1l-1.922,3.664-16.264-8.531-5.813,11.082,16.264,8.531-1.922,3.664a3.027,3.027,0,0,0,5.362,2.813l9.657-18.409a3.027,3.027,0,0,0-5.362-2.813Z" transform="translate(-902.837 -237.233)"/>
          </g>
          <g id="Grupo_24" data-name="Grupo 24" class="cls-7" transform="translate(9.294 4.875)">
            <path id="Trazado_26" data-name="Trazado 26" d="M918.341,256.447l5.813-11.081,4.349,2.281-8.97,9.425Z" transform="translate(-918.341 -245.366)"/>
          </g>
        </g>
        <g id="Grupo_26" data-name="Grupo 26" transform="translate(88.572 42.533)">
          <path id="Rectángulo_29" data-name="Rectángulo 29" class="cls-4" d="M0,0H33.1a0,0,0,0,1,0,0V6.11a2.77,2.77,0,0,1-2.77,2.77H2.77A2.77,2.77,0,0,1,0,6.11V0A0,0,0,0,1,0,0Z" transform="translate(0 29.312) rotate(-62.321)"/>
        </g>
        <g id="Grupo_35" data-name="Grupo 35">
          <g id="Grupo_27" data-name="Grupo 27">
            <path id="Trazado_27" data-name="Trazado 27" class="cls-5" d="M859.262,186.922a2.85,2.85,0,0,0-3.638,1.338l-1.129,2.153a2.739,2.739,0,0,1-3.7,1.153l-73.94-38.785a4.306,4.306,0,0,0-2.9-.4l-21.166,4.536a1.374,1.374,0,0,0-.931.709l-2.191,4.208a1.372,1.372,0,0,0-.049,1.166l8.332,19.9a4.3,4.3,0,0,0,1.97,2.149l73.947,38.789a2.739,2.739,0,0,1,1.153,3.7l-1.129,2.152a2.849,2.849,0,0,0,.967,3.754,2.786,2.786,0,0,0,3.922-1.081l21.819-41.6A2.785,2.785,0,0,0,859.262,186.922Z" transform="translate(-749.511 -152.289)"/>
          </g>
          <g id="Grupo_28" data-name="Grupo 28" class="cls-8" transform="translate(2.926 4.196)">
            <path id="Trazado_28" data-name="Trazado 28" class="cls-9" d="M778.921,159.838a4.627,4.627,0,0,0-2.695-.518l-19.175,2.391a1.031,1.031,0,0,0-.81.528l-1.742,3.35a1.036,1.036,0,0,0,.031.965l8.958,17.06a4.63,4.63,0,0,0,1.952,1.912l70.543,37Z" transform="translate(-754.393 -159.288)"/>
          </g>
          <g id="Grupo_34" data-name="Grupo 34" transform="translate(18.081 26.662)">
            <g id="Grupo_29" data-name="Grupo 29" transform="translate(25.175 13.206)">
              <path id="Rectángulo_30" data-name="Rectángulo 30" class="cls-4" d="M0,0H10.49a.318.318,0,0,1,.318.318v1.4a.318.318,0,0,1-.318.318H0a0,0,0,0,1,0,0V0A0,0,0,0,1,0,0Z" transform="translate(0 9.571) rotate(-62.321)"/>
            </g>
            <g id="Grupo_30" data-name="Grupo 30" transform="translate(0)">
              <path id="Rectángulo_31" data-name="Rectángulo 31" class="cls-4" d="M0,0H10.49a.318.318,0,0,1,.318.318v1.4a.318.318,0,0,1-.318.318H0a0,0,0,0,1,0,0V0A0,0,0,0,1,0,0Z" transform="translate(0 9.571) rotate(-62.321)"/>
            </g>
            <g id="Grupo_31" data-name="Grupo 31" transform="translate(50.351 26.412)">
              <path id="Rectángulo_32" data-name="Rectángulo 32" class="cls-4" d="M0,0H10.49a.318.318,0,0,1,.318.318v1.4a.318.318,0,0,1-.318.318H0a0,0,0,0,1,0,0V0A0,0,0,0,1,0,0Z" transform="translate(0 9.571) rotate(-62.321)"/>
            </g>
            <g id="Grupo_32" data-name="Grupo 32" transform="translate(37.925 24.563)">
              <path id="Rectángulo_33" data-name="Rectángulo 33" class="cls-4" d="M0,0H5.274a.261.261,0,0,1,.261.261V1.41a.261.261,0,0,1-.261.261H0a0,0,0,0,1,0,0V0A0,0,0,0,1,0,0Z" transform="translate(0 4.901) rotate(-62.321)"/>
            </g>
            <g id="Grupo_33" data-name="Grupo 33" transform="translate(12.749 11.358)">
              <path id="Rectángulo_34" data-name="Rectángulo 34" class="cls-4" d="M0,0H5.274a.261.261,0,0,1,.261.261V1.41a.261.261,0,0,1-.261.261H0a0,0,0,0,1,0,0V0A0,0,0,0,1,0,0Z" transform="translate(0 4.901) rotate(-62.32)"/>
            </g>
          </g>
        </g>
      </g>
    </g>
    <g id="Grupo_69" data-name="Grupo 69" transform="translate(121.77 76.823)">
      <g id="Grupo_43" data-name="Grupo 43" transform="translate(63.77 173.455)">
        <g id="Grupo_42" data-name="Grupo 42">
          <g id="Grupo_39" data-name="Grupo 39">
            <g id="Grupo_38" data-name="Grupo 38">
              <path id="Trazado_29" data-name="Trazado 29" class="cls-10" d="M393.548,513.9l-3.116,42.63-10.315,70.577h-7.932l-5.009-65.122L364.957,509.3Z" transform="translate(-364.957 -509.296)"/>
            </g>
          </g>
          <g id="Grupo_41" data-name="Grupo 41" transform="translate(7.274 116.866)">
            <g id="Grupo_40" data-name="Grupo 40">
              <path id="Trazado_30" data-name="Trazado 30" class="cls-4" d="M377.092,704.249v4.289l8.577,4.288,4.288-4.288-4.288-4.289Z" transform="translate(-377.092 -704.249)"/>
            </g>
          </g>
        </g>
      </g>
      <g id="Grupo_49" data-name="Grupo 49" transform="translate(36.177 162.963)">
        <g id="Grupo_48" data-name="Grupo 48">
          <g id="Grupo_45" data-name="Grupo 45">
            <g id="Grupo_44" data-name="Grupo 44">
              <path id="Trazado_31" data-name="Trazado 31" class="cls-10" d="M318.929,496.842l3.015,59.755,6.9,68.6h8.124l6.6-64.994,9.645-68.409Z" transform="translate(-318.929 -491.793)"/>
            </g>
          </g>
          <g id="Grupo_47" data-name="Grupo 47" transform="translate(4.816 132.436)">
            <g id="Grupo_46" data-name="Grupo 46">
              <path id="Trazado_32" data-name="Trazado 32" class="cls-4" d="M340.141,712.72v4.393l-8.785,4.392-4.393-4.392,4.393-4.393Z" transform="translate(-326.963 -712.72)"/>
            </g>
          </g>
        </g>
      </g>
      <g id="Grupo_54" data-name="Grupo 54" transform="translate(40.359 25.464)">
        <g id="Grupo_51" data-name="Grupo 51" transform="translate(10.195 17.018)">
          <g id="Grupo_50" data-name="Grupo 50">
            <path id="Trazado_33" data-name="Trazado 33" class="cls-11" d="M356.222,320.53l-8.314-.813a41.709,41.709,0,0,1,.441-6.64c-2.31-.809-4.981-2.023-5.387-4.437a6.9,6.9,0,0,1,.133-2.3q.807-4.713,1.616-9.426a8.418,8.418,0,0,1,.974-3.137c1.035-1.635,3.046-2.352,4.951-2.685a17.211,17.211,0,0,1,13.941,3.377,7.542,7.542,0,0,1,2.358,3.1c.685,1.907.177,4.012-.334,5.972l-1.418,5.427c-.543,2.081-1.329,4.447-3.332,5.23-1.064.416-2.321.3-3.283.911C356.872,316.194,357.1,318.72,356.222,320.53Z" transform="translate(-342.911 -290.81)"/>
          </g>
        </g>
        <g id="Grupo_53" data-name="Grupo 53">
          <g id="Grupo_52" data-name="Grupo 52">
            <path id="Trazado_34" data-name="Trazado 34" class="cls-4" d="M368.87,277.038a22.406,22.406,0,0,0-.157-7.2c-.311-1.472-2.194-6.108-1.621-7.417-1.071,2.269-3.959,2.9-6.456,3.145-9.354.934-19.793-1.379-28.393,3.422a11.1,11.1,0,0,0-3.8,3.756,16.731,16.731,0,0,0-.022,17.691,23.89,23.89,0,0,0,2.608,3.278c1.964,2.125,4.314,4.749,7.014,5.534.061-2.414-2.148-10.022-.3-12,2.6-2.78,7.326-2.238,10.7-1.758a49.644,49.644,0,0,0,12.929.068,15.24,15.24,0,0,0,4.146-.881c3.132-1.308,3.021-4.217,3.3-7.188C368.841,277.341,368.856,277.192,368.87,277.038Z" transform="translate(-325.904 -262.421)"/>
          </g>
        </g>
      </g>
      <g id="Grupo_60" data-name="Grupo 60" transform="translate(0 19.201)">
        <g id="Grupo_57" data-name="Grupo 57">
          <g id="Grupo_56" data-name="Grupo 56">
            <g id="Grupo_55" data-name="Grupo 55">
              <path id="Trazado_35" data-name="Trazado 35" class="cls-11" d="M267.482,269.25l-1.009-5.162,2.65-3.806-.521-.971-1.222.593,1.295-3.789-1.152-3.039-4.181-1.1-4.108,1.756L258.578,258l1.864,4.785,1.075,7.125Z" transform="translate(-258.578 -251.973)"/>
            </g>
          </g>
        </g>
        <g id="Grupo_59" data-name="Grupo 59" transform="translate(1.637 13.14)">
          <g id="Grupo_58" data-name="Grupo 58">
            <path id="Trazado_36" data-name="Trazado 36" class="cls-12" d="M269.235,274.388l-7.925-.5,3.538,43.24,33.644,17.793,7.751-21-26.6-12.234Z" transform="translate(-261.31 -273.893)"/>
          </g>
        </g>
      </g>
      <g id="Grupo_66" data-name="Grupo 66" transform="translate(68.348)">
        <g id="Grupo_63" data-name="Grupo 63" transform="translate(28.956)">
          <g id="Grupo_62" data-name="Grupo 62">
            <g id="Grupo_61" data-name="Grupo 61">
              <path id="Trazado_37" data-name="Trazado 37" class="cls-11" d="M423.935,237.631l.269-5.252-3.161-3.394.379-1.035,1.293.415L420.9,224.8l.711-3.171,3.983-1.684,4.315,1.158,1.252,4.132-1.17,5-.057,7.206Z" transform="translate(-420.898 -219.942)"/>
            </g>
          </g>
        </g>
        <g id="Grupo_65" data-name="Grupo 65" transform="translate(0 12.567)">
          <g id="Grupo_64" data-name="Grupo 64">
            <path id="Trazado_38" data-name="Trazado 38" class="cls-12" d="M403.421,242.516l7.776-1.61.616,29.915-3.055,23.121-19.883,29.182-16.279-23.552,18.9-13.89Z" transform="translate(-372.595 -240.906)"/>
          </g>
        </g>
      </g>
      <g id="Grupo_68" data-name="Grupo 68" transform="translate(19.973 70.065)">
        <g id="Grupo_67" data-name="Grupo 67">
          <path id="Trazado_39" data-name="Trazado 39" class="cls-12" d="M342.372,336.822l-26.267,1.112L302.846,388.4,291.9,458.366l84.537,2.055-19.883-98.879Z" transform="translate(-291.897 -336.822)"/>
        </g>
      </g>
    </g>
    <g id="Grupo_86" data-name="Grupo 86" transform="translate(313.828 106.026)">
      <g id="Grupo_73" data-name="Grupo 73" transform="translate(0 5.921)">
        <g id="Grupo_71" data-name="Grupo 71">
          <g id="Grupo_70" data-name="Grupo 70">
            <path id="Trazado_40" data-name="Trazado 40" class="cls-13" d="M587.618,295.421l-.966-5.043,2.6-3.707-.506-.95-1.195.575,1.278-3.695-1.114-2.971-4.078-1.093-4.018,1.7-.656,4.165,1.8,4.679,1.023,6.961Z" transform="translate(-578.965 -278.536)"/>
          </g>
        </g>
        <g id="Grupo_72" data-name="Grupo 72" transform="translate(0.985 11.592)">
          <path id="Trazado_41" data-name="Trazado 41" class="cls-6" d="M588.543,297.874l-7.935,6.743,1.126,34.631,13.347,9.3,25.508-3.268-3.4-21.917-21.306,4.1Z" transform="translate(-580.608 -297.874)"/>
        </g>
      </g>
      <g id="Grupo_80" data-name="Grupo 80" transform="translate(19.167 117.327)">
        <g id="Grupo_76" data-name="Grupo 76" transform="translate(19.861 0.842)">
          <g id="Grupo_74" data-name="Grupo 74" transform="translate(38.834 136.138)">
            <path id="Trazado_42" data-name="Trazado 42" class="cls-4" d="M721.21,697.465l1,4.577-7.906,6.517-5.449-3.606,3.454-5.547,7.905-6.517Z" transform="translate(-708.852 -692.889)"/>
          </g>
          <g id="Grupo_75" data-name="Grupo 75">
            <path id="Trazado_43" data-name="Trazado 43" class="cls-6" d="M667.614,465.786l8.821,20.342.832,57.234,18.139,61.562-8.434,3.74-37.014-71.483-4.213-22.641-1.674-47.684Z" transform="translate(-644.07 -465.786)"/>
          </g>
        </g>
        <g id="Grupo_79" data-name="Grupo 79">
          <g id="Grupo_77" data-name="Grupo 77">
            <path id="Trazado_44" data-name="Trazado 44" class="cls-6" d="M611.633,469.783l-.694,59.981,11.3,77.336h8.691l5.489-71.359,11.893-71.359Z" transform="translate(-610.939 -464.381)"/>
          </g>
          <g id="Grupo_78" data-name="Grupo 78" transform="translate(5.846 141.683)">
            <path id="Trazado_45" data-name="Trazado 45" class="cls-14" d="M634.789,700.735v4.7l-9.4,4.7-4.7-4.7,4.7-4.7Z" transform="translate(-620.692 -700.735)"/>
          </g>
        </g>
      </g>
      <g id="Grupo_81" data-name="Grupo 81" transform="translate(7.575 40.654)">
        <path id="Trazado_46" data-name="Trazado 46" class="cls-6" d="M621,337.332l23.086-.855s13.811,12.118,20.949,43.607c7.268,32.064-1.342,78.224-1.342,78.224s-61.938-8.255-72.094-9.53L607.1,385.47Z" transform="translate(-591.601 -336.477)"/>
      </g>
      <g id="Grupo_84" data-name="Grupo 84" transform="translate(18.904)">
        <g id="Grupo_82" data-name="Grupo 82" transform="translate(15.6 14.955)">
          <path id="Trazado_47" data-name="Trazado 47" class="cls-13" d="M647.268,322.519l8.089-.791a40.654,40.654,0,0,0-.43-6.46c2.248-.787,4.845-1.968,5.24-4.317a6.709,6.709,0,0,0-.129-2.235l-1.572-9.17a8.186,8.186,0,0,0-.948-3.051c-1.007-1.59-2.963-2.288-4.817-2.613a16.743,16.743,0,0,0-13.562,3.285,7.33,7.33,0,0,0-2.294,3.016c-.667,1.855-.173,3.9.325,5.809l1.379,5.281c.528,2.024,1.292,4.326,3.241,5.088,1.035.4,2.257.288,3.194.885C646.637,318.3,646.411,320.758,647.268,322.519Z" transform="translate(-636.523 -293.607)"/>
        </g>
        <g id="Grupo_83" data-name="Grupo 83">
          <path id="Trazado_48" data-name="Trazado 48" class="cls-4" d="M610.506,281.978a26.013,26.013,0,0,1,.661-6.126c.719-3.283,4.593-4.758,7.946-4.992,7.242-.5,14.231-3.786,21.3-1.252,4.043,1.449,9.472,1.8,13.13,3.839a10.8,10.8,0,0,1,3.694,3.654,16.275,16.275,0,0,1,.022,17.21,23.253,23.253,0,0,1-2.537,3.188c-1.91,2.067-4.2,4.619-6.822,5.383-.059-2.348,2.09-9.75.289-11.676-2.857-3.058-9.33-2-12.881-1.254-3.874.815-7.329,3.552-11.169,4.133-2.763.418-6.287-.942-8.635-2.373C611.829,289.47,610.6,285.764,610.506,281.978Z" transform="translate(-610.5 -268.659)"/>
        </g>
      </g>
      <g id="Grupo_85" data-name="Grupo 85" transform="translate(17.084 43.17)">
        <path id="Trazado_49" data-name="Trazado 49" class="cls-3" d="M633.723,341.867l-24.27,97.081-1.989,12.732,30.238,3.979s-1.194-46.488-.8-52.686,4.883-19.605,5.57-34.05c.4-8.355,3.052-23.363,1.194-28.249Z" transform="translate(-607.464 -340.674)"/>
      </g>
    </g>
    <g id="Grupo_98" data-name="Grupo 98" transform="translate(0 114.791)">
      <g id="Grupo_87" data-name="Grupo 87" transform="translate(23.594 253.321)">
        <path id="Trazado_50" data-name="Trazado 50" class="cls-4" d="M107.826,705.865l-.125,1.3-.415,4.315-8.736,3.743-3.746-4.6,4.575-4.029.422-.181.051.537Z" transform="translate(-94.804 -705.865)"/>
      </g>
      <g id="Grupo_88" data-name="Grupo 88" transform="translate(20.824 177.579)">
        <path id="Trazado_51" data-name="Trazado 51" class="cls-13" d="M106.419,655.2l-.444.06h-.466L98,656.339l-6.967-73.385-.851-3.442c6.536.1,14.3.193,22.13.255Z" transform="translate(-90.183 -579.513)"/>
      </g>
      <g id="Grupo_89" data-name="Grupo 89" transform="translate(46.205 177.796)">
        <path id="Trazado_52" data-name="Trazado 52" class="cls-13" d="M158.313,579.875l-1.608,19.068-16.129,49.438-7.88-1.047-.128.966-.045-.006,5.807-50.948-4.973-17.4C142.5,580,151.45,580,158.313,579.875Z" transform="translate(-132.523 -579.875)"/>
      </g>
      <g id="Grupo_90" data-name="Grupo 90" transform="translate(45.795 246.22)">
        <path id="Trazado_53" data-name="Trazado 53" class="cls-4" d="M140.3,694.1l.5.066,3.6,4.947-4.772,3.834-7.793-5.5.455-3.424,7.7,1.024Z" transform="translate(-131.838 -694.02)"/>
      </g>
      <g id="Grupo_91" data-name="Grupo 91" transform="translate(46.25 245.254)">
        <path id="Trazado_54" data-name="Trazado 54" class="cls-15" d="M140.606,693.455l-.307.943-7.7-1.024.128-.966Z" transform="translate(-132.598 -692.408)"/>
      </g>
      <g id="Grupo_92" data-name="Grupo 92" transform="translate(8.866 60.07)">
        <path id="Trazado_55" data-name="Trazado 55" class="cls-5" d="M78.71,390.34c-1.012,4.771-4.788,8.27-8.475,11.583a200.96,200.96,0,0,1,8.256-18.436A16.27,16.27,0,0,1,78.71,390.34Z" transform="translate(-70.235 -383.488)"/>
      </g>
      <g id="Grupo_93" data-name="Grupo 93" transform="translate(0.758 35.748)">
        <path id="Trazado_56" data-name="Trazado 56" class="cls-5" d="M59.63,484.457s7.125.141,17.146.288c6.536.1,14.3.193,22.13.255q2.044.016,4.086.029c9.147.056,18.093.055,24.955-.067,5.185-.092,9.182-.251,11.174-.5L122.39,397.906l-.066-.267-4.451-18.117L111.384,353.1l-16.178-7.71a9.4,9.4,0,0,1-4.617-2.2l-.587-.28a13.1,13.1,0,0,0,.688,2.054q.167.381.357.726c1.349,2.46,3.436,4.769,3.383,7.574A6.61,6.61,0,0,1,94.2,354.8a25.559,25.559,0,0,1-.953,2.686c-3.591,9.4.357,20.022,6.2,27.969,2.991,4.071,6.941,7.6,8.645,12.354a10.523,10.523,0,0,1,.557,2.576c.4,4.284-1.621,8.951-5.746,9.649a11.1,11.1,0,0,0-2.9.516c-3.048,1.417-1.731,6.415-3.987,8.907-1.458,1.61-3.923,1.666-6.095,1.6a3.913,3.913,0,0,1-2.057-.441c-1.268-.827-1.146-2.671-1.52-4.138-.677-2.659-3.332-4.4-6.013-4.992s-5.463-.276-8.207-.272a20.984,20.984,0,0,1-9.956-2.119,13.039,13.039,0,0,1-3.227-2.434C53.541,439.727,59.63,484.457,59.63,484.457Z" transform="translate(-56.709 -342.915)"/>
      </g>
      <g id="Grupo_94" data-name="Grupo 94" transform="translate(33.417 12.773)">
        <path id="Trazado_57" data-name="Trazado 57" class="cls-13" d="M111.742,327.227c-1.517-6.569.126-16.95,4.519-20.822,1.726-1.523,3.7-1.8,5.9-1.816,1.04-.008,1.388.261,1.924.167a10.647,10.647,0,0,1,2.533,7.107c-.17,2.045-1.348,3.6-1.442,5.8-.187,4-5.905,8.012-3.708,11.984a9.4,9.4,0,0,1-4.442.4l-4.617-2.2Q112.066,327.55,111.742,327.227Z" transform="translate(-111.19 -304.589)"/>
      </g>
      <g id="Grupo_95" data-name="Grupo 95" transform="translate(34.637 36.028)">
        <path id="Trazado_58" data-name="Trazado 58" class="cls-16" d="M117.843,345.582a9.4,9.4,0,0,1-4.617-2.2Z" transform="translate(-113.226 -343.382)"/>
      </g>
      <g id="Grupo_96" data-name="Grupo 96" transform="translate(43.195 9.716)">
        <path id="Trazado_59" data-name="Trazado 59" class="cls-13" d="M131.711,315.621c.094-2.2,1.273-3.756,1.442-5.8a10.647,10.647,0,0,0-2.533-7.107,2.638,2.638,0,0,0,.917-.4,5.907,5.907,0,0,0,1.859-2.82c2.041,1.291,3.526,3.622,3.935,7.172a26.775,26.775,0,0,1-.885,11.793c-1.323,3.862-4.146,7.493-7.809,8.926-.213.083-.425.156-.635.225C125.806,323.633,131.524,319.619,131.711,315.621Z" transform="translate(-127.501 -299.488)"/>
      </g>
      <g id="Grupo_97" data-name="Grupo 97" transform="translate(0 0)">
        <path id="Trazado_60" data-name="Trazado 60" class="cls-4" d="M55.58,377.367a10.382,10.382,0,0,0,2.86,5.413q.174-1.062.363-2.107-.189,1.045-.363,2.107a13.036,13.036,0,0,0,3.227,2.434,20.984,20.984,0,0,0,9.956,2.119c2.744,0,5.526-.316,8.207.272s5.335,2.333,6.013,4.992c.374,1.467.252,3.311,1.52,4.138a3.912,3.912,0,0,0,2.057.441c2.171.062,4.637.005,6.095-1.6,2.256-2.493.938-7.491,3.987-8.907a11.1,11.1,0,0,1,2.9-.516c4.125-.7,6.143-5.365,5.747-9.649a10.524,10.524,0,0,0-.558-2.576c-1.7-4.755-5.654-8.284-8.645-12.354-5.839-7.946-9.788-18.564-6.2-27.969a25.562,25.562,0,0,0,.953-2.686,6.611,6.611,0,0,0,.227-1.532c.052-2.8-2.035-5.114-3.385-7.574q-.189-.344-.356-.726a13.1,13.1,0,0,1-.688-2.054q-.042-.167-.082-.337c-4.142-4.131-5.8-11.805-3.075-17.54.155-.325.319-.645.493-.956-.173.311-.337.631-.493.956-2.726,5.735-1.066,13.409,3.075,17.54-1.517-6.569.127-16.95,4.52-20.822,1.726-1.523,3.7-1.8,5.9-1.816,1.04-.008,1.388.261,1.924.167a2.636,2.636,0,0,0,.917-.4,5.907,5.907,0,0,0,1.859-2.82c2.041,1.291,3.526,3.622,3.935,7.173a26.771,26.771,0,0,1-.885,11.792c-1.323,3.862-4.146,7.493-7.809,8.926-.213.083-.425.156-.635.225a5.212,5.212,0,0,0,.71.987c2.005,2.206,5.224,2.719,8.18,3.1a2.187,2.187,0,0,0,1.072-.041,1.538,1.538,0,0,0,.845-1.453,6.256,6.256,0,0,0-.374-1.739c-1.718-5.983,1.327-12.818,1.834-18.849s-.736-12.571-5.568-16.642a13.018,13.018,0,0,0-2.376.914q-.113-.151-.234-.3c-6.994-8.4-16.87-1.219-22.182,5.195-4.38,5.287-8.03,11.358-9.7,18.067a72.388,72.388,0,0,0-1.426,21.909c.387,3.745,1.867,7.419,2.65,11.086a16.279,16.279,0,0,1,.219,6.852c-1.013,4.771-4.788,8.27-8.475,11.583q-.5,1.29-1,2.618t-.99,2.694q-.317.88-.614,1.79.3-.909.614-1.79.491-1.366.99-2.694t1-2.618c-.51.458-1.018.913-1.517,1.367C58.687,366.889,54.647,371.894,55.58,377.367Zm36.778-83.134a16.5,16.5,0,0,1,1.671-.97A16.5,16.5,0,0,0,92.358,294.232Z" transform="translate(-55.445 -283.28)"/>
      </g>
    </g>
    <g id="Grupo_118" data-name="Grupo 118" transform="translate(404.706 111.906)">
      <g id="Grupo_117" data-name="Grupo 117" transform="translate(0 0)">
        <g id="Grupo_101" data-name="Grupo 101" transform="translate(42.696 133.485)">
          <g id="Grupo_99" data-name="Grupo 99">
            <path id="Trazado_61" data-name="Trazado 61" class="cls-11" d="M801.79,513.68l34.093-12.538-7.027,59.724,4.072,51.526.36,3.278h0l-6.7.176h0l-15.617-48.234-7.949-48.9h0Z" transform="translate(-801.79 -501.143)"/>
          </g>
          <g id="Grupo_100" data-name="Grupo 100" transform="translate(15.713 114.528)">
            <path id="Trazado_62" data-name="Trazado 62" class="cls-4" d="M837.088,692.373l6.975-.177,1.781,5.885-.176.052.045,0-11.531,6.833-5.483.61-.7-6.266,1.481-1.085Z" transform="translate(-828.001 -692.196)"/>
          </g>
        </g>
        <g id="Grupo_104" data-name="Grupo 104" transform="translate(19.473 139.408)">
          <g id="Grupo_102" data-name="Grupo 102">
            <path id="Trazado_63" data-name="Trazado 63" class="cls-11" d="M763.05,518.664l10.472,104.658,6.741.991,6.547-58.3,11.752-54.99Z" transform="translate(-763.05 -511.024)"/>
          </g>
          <g id="Grupo_103" data-name="Grupo 103" transform="translate(1.311 112.273)">
            <path id="Trazado_64" data-name="Trazado 64" class="cls-4" d="M774.175,698.315l-8.938,5.068.837,4.218,15.971-2.407-.939-6.077Z" transform="translate(-765.237 -698.315)"/>
          </g>
        </g>
        <g id="Grupo_110" data-name="Grupo 110" transform="translate(0 39.894)">
          <g id="Grupo_106" data-name="Grupo 106" transform="translate(1.289 0.086)">
            <g id="Grupo_105" data-name="Grupo 105">
              <path id="Trazado_65" data-name="Trazado 65" class="cls-1" d="M734.916,477.909c-2.157-1.5-2.2-4.106-2.2-6.718a65.267,65.267,0,0,1,2.014-14.686,220.621,220.621,0,0,0,5.635-31.3c2.759-29.948,12.216-50.044,12.216-50.044l3.051-8.138q.91-1.587,1.893-3.136c3.811-5.981,10.429-16.145,17.507-17.808.148-.035.3-.069.446-.1,7.441-1.634,16.977-.875,23.7,2.742a23.541,23.541,0,0,1,3.537,2.51c3.288,2.652,5.97,4.089,7.388,8.131,1.231,3.509,1.517,7.339,2.2,10.976,1.379,7.389,2.2,14.866,3.3,22.3,2.064,13.937,3.818,27.92,6.026,41.835,1.137,7.162,2.281,14.337,2.819,21.574.475,6.4,6.247,12.9,9.491,18.63,1.129,2-15.082,7.166-16.535,7.5-6.725,1.566-13.878,1.166-20.81,1.2q-22.788.1-45.544-1.4c-5.037-.334-11.245-1.3-15.714-3.8Q735.113,478.046,734.916,477.909Z" transform="translate(-732.717 -345.16)"/>
            </g>
          </g>
          <g id="Grupo_107" data-name="Grupo 107" transform="translate(18.789)">
            <path id="Trazado_66" data-name="Trazado 66" class="cls-3" d="M795.516,345.1s8.557-2.31,9.739,17,3.153,68.17,5.911,81.567,6.9,39.676,6.9,39.676l-26.2.911-29.947-2.364s10.245-18.914,11.821-32.312-1.182-63.835,5.516-82.75S787.352,345.442,795.516,345.1Z" transform="translate(-761.91 -345.016)"/>
          </g>
          <g id="Grupo_109" data-name="Grupo 109" transform="translate(0 0.928)">
            <g id="Grupo_108" data-name="Grupo 108">
              <path id="Trazado_67" data-name="Trazado 67" class="cls-1" d="M744.233,388.728l-13.666-2.108V374.847l32.975-25.13,10.639-3.152-5.123,13.792Z" transform="translate(-730.566 -346.565)"/>
            </g>
          </g>
        </g>
        <g id="Grupo_115" data-name="Grupo 115" transform="translate(32.558 8.314)">
          <g id="Grupo_113" data-name="Grupo 113">
            <g id="Grupo_111" data-name="Grupo 111">
              <path id="Trazado_68" data-name="Trazado 68" class="cls-4" d="M792.78,308.7c-1.295,3.887.579,8.033,2.224,11.576,1.458,3.142,1.966,5.21-1.737,6.057-2.087.478-5.789,1.369-7.62-.229-1.385-1.21-.607-4.948.068-6.432.515-1.134,1.877-1.71,2.362-2.857a4.01,4.01,0,0,0,.236-1.511,20.863,20.863,0,0,0-.857-6.206,21.137,21.137,0,0,1-1.075-4.124c-.177-2.056,1.277-4.453,2.041-6.342,1.421-3.515,6.37-8.231,10.513-5.471a6.055,6.055,0,0,1,1.952,2.726,5.028,5.028,0,0,1,.543,1.942c.032,2.7-2.433,3.154-4.134,4.439A13.513,13.513,0,0,0,792.78,308.7Z" transform="translate(-784.878 -292.335)"/>
            </g>
            <g id="Grupo_112" data-name="Grupo 112" transform="translate(6.786 4.178)">
              <path id="Trazado_69" data-name="Trazado 69" class="cls-11" d="M805.2,326.666c-3.594-.847-6.4-3.865-7.754-7.3a23.4,23.4,0,0,1-1.047-10.921c1.243-12.224,16.448-11.439,21.6-2.07C822.479,314.539,815.645,329.127,805.2,326.666Z" transform="translate(-796.199 -299.305)"/>
            </g>
          </g>
          <g id="Grupo_114" data-name="Grupo 114" transform="translate(15.712 27.177)">
            <path id="Trazado_70" data-name="Trazado 70" class="cls-11" d="M811.162,340.716q.091,2.089.181,4.178a.639.639,0,0,0,.825.735l3.4-.118a3.7,3.7,0,0,0,1.643-.311c1.085-.583,1.309-2.054,1.137-3.274a10.566,10.566,0,0,1-.352-3.653c-2.343,1.155-4.569-1.454-6.912-.3Z" transform="translate(-811.088 -337.671)"/>
          </g>
        </g>
        <g id="Grupo_116" data-name="Grupo 116" transform="translate(41.507)">
          <path id="Trazado_71" data-name="Trazado 71" class="cls-4" d="M811.548,278.906c3.992,1.357,6.553,5.4,10.449,7.008,2.235.925,4.879,1.042,6.7,2.632,4.086,3.561.8,11.032,4.158,15.288.7.885,1.639,1.554,2.34,2.436,1.511,1.9,1.709,4.5,1.844,6.928a7.636,7.636,0,0,1-.059,1.69c-.525,5.6-8.661,5.248-11.893,4.889-3.546-.394-2.364-2.364-2.364-2.364l.129-.158a6.784,6.784,0,0,0-2.383-6.152,8.3,8.3,0,0,1-1.916-1.681c-1.05-1.6-.048-3.729-.2-5.639-.622-7.7-13.537-6.046-17.182-11.525C796.7,285.539,804.007,276.344,811.548,278.906Z" transform="translate(-799.807 -278.467)"/>
        </g>
      </g>
    </g>
    <g id="Grupo_123" data-name="Grupo 123" transform="translate(468.772 94.884)">
      <g id="Grupo_120" data-name="Grupo 120" transform="translate(12.937)">
        <g id="Grupo_119" data-name="Grupo 119">
          <path id="Trazado_72" data-name="Trazado 72" class="cls-11" d="M867.014,256.988l-4.944-6.917-3.049,1.984,2.337,5.487-1.877.269,4.952,5.4,3.447-1.635Z" transform="translate(-859.021 -250.071)"/>
        </g>
      </g>
      <g id="Grupo_122" data-name="Grupo 122" transform="translate(0 9.261)">
        <g id="Grupo_121" data-name="Grupo 121">
          <path id="Trazado_73" data-name="Trazado 73" class="cls-1" d="M837.44,322.205,863.3,301.316,853.7,269.4l9.538-3.883L881.025,307.6l-25.9,32.672Z" transform="translate(-837.44 -265.519)"/>
        </g>
      </g>
    </g>
    <g id="Grupo_124" data-name="Grupo 124" transform="translate(429.296 190.292)">
      <path id="Trazado_74" data-name="Trazado 74" class="cls-11" d="M775.734,415.788l7.724-1.277-.4-3.325-5.483-.3.54-1.661-6.477,1.9-.049,3.513Z" transform="translate(-771.588 -409.229)"/>
    </g>
    <g id="Grupo_126" data-name="Grupo 126" transform="translate(404.706 184.358)">
      <g id="Grupo_125" data-name="Grupo 125">
        <path id="Trazado_75" data-name="Trazado 75" class="cls-1" d="M738.32,399.33l-.04.672,18.9,5.782-.453,6.965-26.164-6.71Z" transform="translate(-730.566 -399.33)"/>
      </g>
    </g>
    <g id="Grupo_134" data-name="Grupo 134" transform="translate(283.732 284.324)">
      <g id="Grupo_133" data-name="Grupo 133">
        <g id="Grupo_132" data-name="Grupo 132">
          <g id="Grupo_130" data-name="Grupo 130">
            <g id="Grupo_129" data-name="Grupo 129">
              <g id="Grupo_127" data-name="Grupo 127" transform="translate(0 20.105)">
                <rect id="Rectángulo_35" data-name="Rectángulo 35" class="cls-1" width="96.423" height="72.277" rx="17.888"/>
              </g>
              <g id="Grupo_128" data-name="Grupo 128" transform="translate(22.79)">
                <path id="Trazado_76" data-name="Trazado 76" class="cls-1" d="M613.314,582.267V568.407a2.506,2.506,0,0,0-2.6-2.316h-37.55a2.506,2.506,0,0,0-2.6,2.316v13.826a3.933,3.933,0,0,0-3.787,3.962h12.739a3.934,3.934,0,0,0-3.752-3.961V570.724h32.35v11.5h-.26a3.934,3.934,0,0,0-3.9,3.969h12.739A3.943,3.943,0,0,0,613.314,582.267Z" transform="translate(-566.777 -566.091)"/>
              </g>
            </g>
          </g>
          <g id="Grupo_131" data-name="Grupo 131" transform="translate(23.039 30.349)">
            <path id="Trazado_77" data-name="Trazado 77" class="cls-3" d="M614.713,635.348H597.583V617.916a1.2,1.2,0,0,0-1.176-1.2h-9.735a1.2,1.2,0,0,0-1.175,1.2v17.432h-17.13a1.2,1.2,0,0,0-1.176,1.2v9.906a1.114,1.114,0,0,0,.337.837,1.075,1.075,0,0,0,.839.359H585.5v17.432a1.2,1.2,0,0,0,1.175,1.2h9.735a1.077,1.077,0,0,0,.823-.344,1.113,1.113,0,0,0,.352-.853V647.647h17.129a1.2,1.2,0,0,0,1.176-1.2v-9.906A1.2,1.2,0,0,0,614.713,635.348Z" transform="translate(-567.192 -616.719)"/>
          </g>
        </g>
      </g>
    </g>
    <g id="Grupo_167" data-name="Grupo 167" transform="translate(158.135 91.235)">
      <g id="Grupo_166" data-name="Grupo 166">
        <g id="Grupo_156" data-name="Grupo 156">
          <g id="Grupo_140" data-name="Grupo 140" transform="translate(0 64.731)">
            <g id="Grupo_135" data-name="Grupo 135">
              <path id="Trazado_78" data-name="Trazado 78" class="cls-4" d="M319.762,379.343a22.515,22.515,0,1,0,17.212-26.86A22.554,22.554,0,0,0,319.762,379.343Z" transform="translate(-319.242 -351.968)"/>
            </g>
            <g id="Grupo_136" data-name="Grupo 136" transform="translate(7.041 7.066)">
              <path id="Trazado_79" data-name="Trazado 79" class="cls-10" d="M331.346,382.57a15.476,15.476,0,1,0,11.831-18.462A15.5,15.5,0,0,0,331.346,382.57Z" transform="translate(-330.988 -363.754)"/>
            </g>
            <g id="Grupo_137" data-name="Grupo 137" transform="translate(21.567 31.164)">
              <rect id="Rectángulo_36" data-name="Rectángulo 36" class="cls-10" width="6.033" height="72.03" transform="translate(21.175 70.391) rotate(167.754)"/>
            </g>
            <g id="Grupo_138" data-name="Grupo 138" transform="translate(17.462 17.799)">
              <path id="Trazado_80" data-name="Trazado 80" class="cls-4" d="M348.493,388.1a5.3,5.3,0,1,0,4.051-6.32A5.308,5.308,0,0,0,348.493,388.1Z" transform="translate(-348.371 -381.66)"/>
            </g>
            <g id="Grupo_139" data-name="Grupo 139" class="cls-17" transform="translate(18.904 27.424)">
              <path id="Trazado_81" data-name="Trazado 81" d="M352.473,398.259l3.722,17.159a27.2,27.2,0,0,1-5.418-.225l.758-17.478Z" transform="translate(-350.777 -397.715)"/>
            </g>
          </g>
          <g id="Grupo_142" data-name="Grupo 142" transform="translate(31.704 146.582)">
            <g id="Grupo_141" data-name="Grupo 141">
              <path id="Trazado_82" data-name="Trazado 82" class="cls-18" d="M480.539,489.024c-1.31.233-2.432,1.362-3.884,1.223.324,2.07-.41-2.738-.208-.646q.405,4.195.508,8.418.057,2.393.008,4.791c-.005.276-.064,1.774-.014.641-.018.421-.033.843-.054,1.264q-.059,1.218-.15,2.439a83.953,83.953,0,0,1-1.445,10.6c-.367,1.791-.8,3.578-1.314,5.355q-.4,1.4-.875,2.785c-.134.395-.278.789-.417,1.183-.026.073-.071.194-.107.288-.029.074-.057.149-.087.223a51.186,51.186,0,0,1-5.236,9.943c-.268.39-.547.774-.827,1.158.291-.4-.445.573-.595.757q-.811,1-1.7,1.967a44.048,44.048,0,0,1-4.021,3.817c.273-.239-.865.67-1.076.825q-.618.452-1.257.884-1.159.783-2.387,1.5-.827.482-1.683.931c-.191.1-.388.2-.578.3l-.056.03-.058.025c-.926.405-1.834.825-2.782,1.2q-1.785.7-3.642,1.267-.78.239-1.569.454c-.235.064-.472.125-.708.187l-.047.01a73.051,73.051,0,0,1-7.629,1.273c-.737.074-1.474.124-2.212.177-.047,0-.095.005-.143.008l-.088.005-.5.025.3-.016c-.1,0-.215.008-.289.009-1.11.007-2.216.008-3.319-.046q-1.774-.086-3.519-.307c-.49-.062-.973-.143-1.461-.21l-.033,0-.073-.017c-.207-.047-.421-.083-.63-.126a41.828,41.828,0,0,1-6-1.72c-.288-.107-2.064-.863-.948-.361-.412-.185-.828-.364-1.235-.554q-1.295-.606-2.524-1.286a46.43,46.43,0,0,1-4.7-3c-.116-.086-.27-.2-.342-.258-.228-.182-.46-.36-.686-.543q-.512-.413-1.01-.837-1.059-.9-2.054-1.847A56.823,56.823,0,0,1,401.2,539q-.994-1.158-1.921-2.351c-.174-.224-.81-1.081-.454-.592-.254-.348-.509-.7-.758-1.047a89.791,89.791,0,0,1-10.281-19.545q-.907-2.332-1.712-4.694c-.141-.414-.278-.83-.417-1.245l-.034-.1-.06-.19c-.225-.718-.448-1.435-.664-2.154q-1.111-3.729-1.992-7.508c-.539-2.316-1.047-4.647-1.382-7-.658-4.63-10.015-3.3-9.359,1.323.024.163.054.325.076.489a84.235,84.235,0,0,0,2.3,10.492,123.452,123.452,0,0,0,6.854,19.389c6.261,13.728,16.142,28.244,33.738,34.607,18.428,6.664,42.67.786,55.55-12.46,12.17-12.515,15.142-28.869,15.6-43.551.221-7.076.957-7.374-.243-14.347C484.4,489.211,482.244,488.721,480.539,489.024Zm-36.183,63.8c.652-.168.243-.056,0,0Zm28.19-25.348Z" transform="translate(-372.13 -488.51)"/>
            </g>
          </g>
          <g id="Grupo_147" data-name="Grupo 147" transform="translate(129.835)">
            <g id="Grupo_143" data-name="Grupo 143" transform="translate(9.763 0.801)">
              <path id="Trazado_83" data-name="Trazado 83" class="cls-10" d="M554.282,248.742l20.213-3.387a2.741,2.741,0,0,1,3.106,2.223q3.868,23.095,7.736,46.188.546,3.258,1.091,6.515c.575,3.436-4.743,4.332-5.319.891q-3.868-23.094-7.735-46.188-.323-1.922-.644-3.846l-17.553,2.942C551.754,254.655,550.854,249.317,554.282,248.742Z" transform="translate(-552.117 -245.32)"/>
            </g>
            <g id="Grupo_146" data-name="Grupo 146">
              <g id="Grupo_144" data-name="Grupo 144" transform="translate(0 1.637)">
                <path id="Trazado_84" data-name="Trazado 84" class="cls-4" d="M541.429,258.421l6.137-1.029-1.788-10.678-6.137,1.029A4.563,4.563,0,0,0,535.893,253l.281,1.679A4.564,4.564,0,0,0,541.429,258.421Z" transform="translate(-535.829 -246.715)"/>
              </g>
              <g id="Grupo_145" data-name="Grupo 145" transform="translate(8.982)">
                <path id="Trazado_85" data-name="Trazado 85" class="cls-10" d="M552.879,257.268l5.2-.872a5.273,5.273,0,0,0,4.33-6.07l-.325-1.94a5.272,5.272,0,0,0-6.072-4.328l-5.2.872Z" transform="translate(-550.813 -243.985)"/>
              </g>
            </g>
          </g>
          <g id="Grupo_152" data-name="Grupo 152" transform="translate(66.524 8.519)">
            <g id="Grupo_148" data-name="Grupo 148" transform="translate(0 4.139)">
              <path id="Trazado_86" data-name="Trazado 86" class="cls-10" d="M452.677,265.143l-20.213,3.388a2.74,2.74,0,0,0-2.213,3.115q3.868,23.095,7.736,46.188.545,3.258,1.091,6.516c.575,3.435,5.9,2.549,5.319-.891q-3.868-23.094-7.735-46.188-.322-1.922-.644-3.846l17.553-2.942C456.993,269.909,456.1,264.569,452.677,265.143Z" transform="translate(-430.215 -265.1)"/>
            </g>
            <g id="Grupo_151" data-name="Grupo 151" transform="translate(14.575)">
              <g id="Grupo_149" data-name="Grupo 149" transform="translate(8.916)">
                <path id="Trazado_87" data-name="Trazado 87" class="cls-4" d="M477.329,268.936l-6.138,1.029L469.4,259.287l6.137-1.028A4.563,4.563,0,0,1,480.795,262l.281,1.68A4.562,4.562,0,0,1,477.329,268.936Z" transform="translate(-469.402 -258.195)"/>
              </g>
              <g id="Grupo_150" data-name="Grupo 150" transform="translate(0 0.123)">
                <path id="Trazado_88" data-name="Trazado 88" class="cls-10" d="M466.2,270.739l-5.2.872a5.272,5.272,0,0,1-6.072-4.328l-.326-1.94a5.273,5.273,0,0,1,4.33-6.07l5.2-.872Z" transform="translate(-454.529 -258.4)"/>
              </g>
            </g>
          </g>
          <g id="Grupo_153" data-name="Grupo 153" class="cls-17" transform="translate(136.249 149.854)">
            <path id="Trazado_89" data-name="Trazado 89" d="M546.53,496.6s.382,3.31.641,7.149l9-5.8-.625-3.983Z" transform="translate(-546.53 -493.968)"/>
          </g>
          <g id="Grupo_155" data-name="Grupo 155" transform="translate(73.752 52.252)">
            <g id="Grupo_154" data-name="Grupo 154">
              <path id="Trazado_90" data-name="Trazado 90" class="cls-18" d="M544.345,334.768a156.6,156.6,0,0,1,3.513,29.418c.593,17.418-1.009,36.782-11.329,51.45-10.923,15.523-32.8,22.126-50.2,13.934-16.613-7.822-26.7-25.2-33.4-41.592a187.841,187.841,0,0,1-7.642-23.117c-1.086-4.109-2.162-8.285-2.841-12.487-.031-.194-.071-.387-.1-.581-.923-5.5,7.587-6.931,8.511-1.426.47,2.8,1.1,5.571,1.753,8.328q1.069,4.5,2.35,8.942c.247.858.5,1.713.759,2.567.339,1.132-.2-.621.106.346.156.495.311.99.469,1.485q.9,2.814,1.9,5.6a130.2,130.2,0,0,0,10.8,23.355c.282.469.57.933.858,1.4-.54-.872.182.28.369.566q.936,1.43,1.929,2.82c1.246,1.741,2.563,3.431,3.961,5.052q.98,1.137,2.016,2.224.487.511.986,1.009c.221.221.446.437.668.656.181.177.909.837.1.1a49.049,49.049,0,0,0,4.768,3.85q1.177.825,2.41,1.566c.387.232.783.451,1.174.677-1.06-.613.624.312.9.443a34.593,34.593,0,0,0,5.631,2.134c.194.055.394.1.587.159,1,.3-.933-.172.1.026.453.088.9.191,1.358.272q1.616.289,3.256.419c1.018.081,2.033.1,3.054.1.267,0,1.048-.047-.006.008.221-.011.444-.017.664-.034.675-.051,1.348-.1,2.021-.176a50.962,50.962,0,0,0,6.924-1.394c.207-.053.816-.263-.123.044.268-.087.536-.174.8-.266q.71-.244,1.411-.514c1.109-.429,2.2-.912,3.26-1.448.845-.427,1.652-.911,2.474-1.378.925-.525-.762.548.1-.064.167-.119.342-.228.51-.345q.755-.52,1.482-1.079,1.079-.83,2.09-1.743.558-.5,1.094-1.03c.215-.211,1.52-1.625.7-.7a42.959,42.959,0,0,0,3.662-4.731q.748-1.131,1.424-2.308c.141-.245.9-1.681.355-.617.278-.542.556-1.084.819-1.634a63.439,63.439,0,0,0,4.125-11.721c.052-.2.1-.41.149-.615-.245,1.007-.061.264-.007.011.1-.466.2-.931.3-1.4q.337-1.639.611-3.292c.349-2.1.625-4.215.838-6.335a124.882,124.882,0,0,0,.595-12.563q0-1.446-.03-2.892c-.01-.5-.026-1-.038-1.5.033,1.343-.018-.434-.032-.761q-.12-2.846-.339-5.687-.383-5.013-1.048-10c-.516-3.879-1.233-7.705-1.943-11.55-.034-.187-.08-.373-.122-.558a4.315,4.315,0,1,1,8.51-1.426Z" transform="translate(-442.274 -331.15)"/>
            </g>
          </g>
        </g>
        <g id="Grupo_165" data-name="Grupo 165" transform="translate(97.503 112.166)">
          <g id="Grupo_163" data-name="Grupo 163">
            <g id="Grupo_157" data-name="Grupo 157" transform="translate(0 108.844)">
              <path id="Trazado_91" data-name="Trazado 91" class="cls-19" d="M481.9,612.807l-.008-.032c.262-.068.391-.1.4-.1h0l.016,0,0,.016c0,.005,0,.01-.014.017v0l-.012,0C482.251,612.723,482.15,612.75,481.9,612.807Z" transform="translate(-481.895 -612.67)"/>
            </g>
            <g id="Grupo_158" data-name="Grupo 158" transform="translate(32.24 79.946)">
              <path id="Trazado_92" data-name="Trazado 92" class="cls-19" d="M535.709,564.507l-.032-.012.013-.032.03.013Z" transform="translate(-535.678 -564.463)"/>
            </g>
            <g id="Grupo_159" data-name="Grupo 159" transform="translate(36.018 24.712)">
              <path id="Trazado_93" data-name="Trazado 93" class="cls-19" d="M541.982,472.368l0-.034c.08-.008.131-.011.15-.013l0,.034Z" transform="translate(-541.979 -472.322)"/>
            </g>
            <g id="Grupo_160" data-name="Grupo 160" transform="translate(44.466 26.564)">
              <path id="Trazado_94" data-name="Trazado 94" class="cls-19" d="M556.082,475.536l-.01-.032c.064-.02.273-.088.285-.091l.016,0,0,.015c0,.006,0,.011-.014.019h0A2.425,2.425,0,0,1,556.082,475.536Z" transform="translate(-556.072 -475.411)"/>
            </g>
            <g id="Grupo_161" data-name="Grupo 161" transform="translate(65.849)">
              <path id="Trazado_95" data-name="Trazado 95" class="cls-19" d="M591.776,431.483h0l-.033-.008v0l0-.01.048-.2.008-.032.03-.124V431.1l.033.008c-.015.062-.028.116-.039.163C591.81,431.34,591.793,431.412,591.776,431.483Z" transform="translate(-591.743 -431.098)"/>
            </g>
            <g id="Grupo_162" data-name="Grupo 162" transform="translate(65.831 0.426)">
              <path id="Trazado_96" data-name="Trazado 96" class="cls-19" d="M591.746,431.843l-.033-.007s0-.01.007-.029h0l.032.008A.188.188,0,0,0,591.746,431.843Z" transform="translate(-591.713 -431.808)"/>
            </g>
          </g>
          <g id="Grupo_164" data-name="Grupo 164" transform="translate(36.148 28.068)">
            <path id="Trazado_97" data-name="Trazado 97" class="cls-19" d="M542.2,477.964v-.033h.022l.212-.01v.033l-.072,0-.161.007Z" transform="translate(-542.196 -477.92)"/>
          </g>
        </g>
      </g>
    </g>
    <g id="Grupo_188" data-name="Grupo 188" transform="translate(49.237 156.193)">
      <g id="Grupo_187" data-name="Grupo 187">
        <g id="Grupo_176" data-name="Grupo 176">
          <g id="Grupo_168" data-name="Grupo 168" transform="translate(0 6.728)">
            <rect id="Rectángulo_37" data-name="Rectángulo 37" class="cls-4" width="94.571" height="125.452" transform="translate(20.233 0) rotate(9.281)"/>
          </g>
          <g id="Grupo_169" data-name="Grupo 169" class="cls-20" transform="translate(7.836 25.153)">
            <path id="Trazado_98" data-name="Trazado 98" class="cls-21" d="M150.654,495.51l1.4.228,82.007,16.011,16.97-117.443-4.01.469Z" transform="translate(-150.654 -394.306)"/>
          </g>
          <g id="Grupo_170" data-name="Grupo 170" transform="translate(5.576 11.44)">
            <rect id="Rectángulo_38" data-name="Rectángulo 38" class="cls-22" width="85.032" height="116.067" transform="translate(18.719 0) rotate(9.281)"/>
          </g>
          <g id="Grupo_171" data-name="Grupo 171" class="cls-23" transform="translate(15.556 10.927)">
            <path id="Trazado_99" data-name="Trazado 99" d="M171.882,370.574l60.36,9.864-68.711,40.632Z" transform="translate(-163.531 -370.574)"/>
          </g>
          <g id="Grupo_175" data-name="Grupo 175" transform="translate(47.571)">
            <g id="Grupo_172" data-name="Grupo 172" class="cls-7" transform="translate(0 14.713)">
              <rect id="Rectángulo_39" data-name="Rectángulo 39" width="36.93" height="3.446" transform="matrix(0.987, 0.161, -0.161, 0.987, 0.556, 0)"/>
            </g>
            <g id="Grupo_174" data-name="Grupo 174" transform="translate(0)">
              <g id="Grupo_173" data-name="Grupo 173">
                <path id="Trazado_100" data-name="Trazado 100" class="cls-24" d="M248.151,361.507l-.565-.092.062-.379c.583-3.571-2.289-7.012-6.414-7.686l-5.434-.888c-4.126-.674-7.943,1.674-8.527,5.245l-.062.379-.565-.092c-4.126-.674-7.943,1.674-8.527,5.245l-1.18,7.224,36.446,5.956,1.18-7.223C255.148,365.622,252.276,362.181,248.151,361.507Zm-5.976-.824-9.6-1.569a1.8,1.8,0,1,1,.58-3.548l9.6,1.569a1.8,1.8,0,1,1-.58,3.548Z" transform="translate(-216.939 -352.346)"/>
              </g>
            </g>
          </g>
        </g>
        <g id="Grupo_180" data-name="Grupo 180" class="cls-25" transform="translate(20.034 45.268)">
          <g id="Grupo_177" data-name="Grupo 177" transform="translate(7.398)">
            <path id="Trazado_101" data-name="Trazado 101" class="cls-26" d="M198.42,429.883,186.1,427.869a.658.658,0,0,0-.746.533q-1,6.124-2,12.248a.658.658,0,0,0,.537.743l12.321,2.013a.6.6,0,0,0,.462-.1.227.227,0,0,0,.025-.017l.01-.007a.6.6,0,0,0,.249-.41q1-6.123,2-12.247A.657.657,0,0,0,198.42,429.883Zm-2.642,12.143-11.038-1.8q.9-5.486,1.792-10.972l11.038,1.8Q196.673,436.54,195.778,442.026Z" transform="translate(-183.345 -427.861)"/>
          </g>
          <g id="Grupo_178" data-name="Grupo 178" transform="translate(3.699 22.646)">
            <path id="Trazado_102" data-name="Trazado 102" class="cls-26" d="M192.249,467.66l-12.321-2.014a.657.657,0,0,0-.746.533q-1,6.123-2,12.247a.657.657,0,0,0,.537.743l12.321,2.014a.6.6,0,0,0,.462-.1c.009,0,.017-.011.025-.017l.014-.011a.592.592,0,0,0,.245-.406q1-6.124,2-12.248A.657.657,0,0,0,192.249,467.66ZM189.607,479.8,178.569,478q.9-5.486,1.792-10.972l11.038,1.8Q190.5,474.317,189.607,479.8Z" transform="translate(-177.174 -465.638)"/>
          </g>
          <g id="Grupo_179" data-name="Grupo 179" transform="translate(0 45.291)">
            <path id="Trazado_103" data-name="Trazado 103" class="cls-26" d="M186.078,505.436l-12.321-2.013a.658.658,0,0,0-.746.533q-1,6.123-2,12.248a.657.657,0,0,0,.538.743l12.321,2.013a.6.6,0,0,0,.462-.1l.025-.017.014-.011a.592.592,0,0,0,.245-.406q1-6.124,2-12.248A.658.658,0,0,0,186.078,505.436Zm-2.642,12.143-11.037-1.8q.9-5.486,1.792-10.972l11.037,1.8Q184.331,512.094,183.436,517.58Z" transform="translate(-171.003 -503.415)"/>
          </g>
        </g>
        <g id="Grupo_181" data-name="Grupo 181" transform="translate(33.58 45.7)">
          <path id="Trazado_104" data-name="Trazado 104" class="cls-1" d="M193.6,433.47l2.985-.476,1.113,3.072,15.114-7.485,1.522.57L196.506,439.4Z" transform="translate(-193.599 -428.582)"/>
        </g>
        <g id="Grupo_182" data-name="Grupo 182" transform="translate(28.76 68.752)">
          <path id="Trazado_105" data-name="Trazado 105" class="cls-1" d="M185.559,471.925l2.985-.476,1.113,3.072,15.114-7.485,1.522.57-17.827,10.253Z" transform="translate(-185.559 -467.036)"/>
        </g>
        <g id="Grupo_183" data-name="Grupo 183" transform="translate(25.003 90.144)">
          <path id="Trazado_106" data-name="Trazado 106" class="cls-1" d="M179.29,507.61l2.985-.476,1.113,3.072,15.114-7.485,1.522.57L182.2,513.544Z" transform="translate(-179.29 -502.721)"/>
        </g>
        <g id="Grupo_184" data-name="Grupo 184" class="cls-27" transform="translate(41.211 98.85)">
          <rect id="Rectángulo_40" data-name="Rectángulo 40" class="cls-5" width="44.042" height="6.205" transform="translate(1.001 0) rotate(9.281)"/>
        </g>
        <g id="Grupo_185" data-name="Grupo 185" class="cls-27" transform="translate(45.129 74.865)">
          <rect id="Rectángulo_41" data-name="Rectángulo 41" class="cls-5" width="44.042" height="6.205" transform="translate(1.001 0) rotate(9.281)"/>
        </g>
        <g id="Grupo_186" data-name="Grupo 186" class="cls-27" transform="translate(49.047 50.88)">
          <rect id="Rectángulo_42" data-name="Rectángulo 42" class="cls-5" width="44.042" height="6.205" transform="translate(1.001 0) rotate(9.281)"/>
        </g>
      </g>
    </g>
    <g id="Grupo_193" data-name="Grupo 193" transform="translate(373.492 179.889)">
      <g id="Grupo_189" data-name="Grupo 189" transform="translate(0 12.794)">
        <path id="Trazado_107" data-name="Trazado 107" class="cls-28" d="M756.759,469.2,714.44,479.466a28.991,28.991,0,0,1-35.134-21.127h0a28.986,28.986,0,0,1,21.54-34.879l42.212-10.243Z" transform="translate(-678.496 -413.218)"/>
      </g>
      <g id="Grupo_190" data-name="Grupo 190" transform="translate(66.163)">
        <path id="Trazado_108" data-name="Trazado 108" class="cls-4" d="M802.462,460.287l47.58-11.643a26.793,26.793,0,0,0,19.719-32.357l-.954-3.931a26.794,26.794,0,0,0-32.356-19.718l-47.583,11.644Z" transform="translate(-788.868 -391.875)"/>
      </g>
      <g id="Grupo_192" data-name="Grupo 192" transform="translate(22.346 30.582)">
        <g id="Grupo_191" data-name="Grupo 191">
          <path id="Trazado_109" data-name="Trazado 109" class="cls-4" d="M748.224,452.283l-10.752,2.609-1.007.245-1.878-7.738-.942-3.883a.839.839,0,0,0-1-.6l-6.682,1.622a.838.838,0,0,0-.614.993l2.579,10.626q.121.5.241,1l-7.831,1.9-3.929.953a.838.838,0,0,0-.613.994l1.6,6.6a.755.755,0,0,0,.367.5.771.771,0,0,0,.634.1l10.753-2.609,1.007-.245q.94,3.869,1.879,7.738l.942,3.883a.838.838,0,0,0,1,.6l6.683-1.621a.77.77,0,0,0,.51-.366.751.751,0,0,0,.1-.628L738.7,464.331q-.12-.5-.242-1l7.831-1.9,3.929-.953a.838.838,0,0,0,.614-.994l-1.6-6.6A.838.838,0,0,0,748.224,452.283Z" transform="translate(-715.772 -442.891)"/>
        </g>
      </g>
    </g>
    <g id="Grupo_196" data-name="Grupo 196" transform="translate(316.612 161.945)">
      <g id="Grupo_194" data-name="Grupo 194" transform="translate(0 38.993)">
        <path id="Trazado_110" data-name="Trazado 110" class="cls-13" d="M601.625,427.655l-5.41,1.71-4.4-2.377-.977.677.785,1.237-4.219-.926-3.117,1.605-.674,4.616,2.383,4.19,4.655.183,4.9-2.581,7.507-2.02Z" transform="translate(-583.609 -426.989)"/>
      </g>
      <g id="Grupo_195" data-name="Grupo 195" transform="translate(13.415)">
        <path id="Trazado_111" data-name="Trazado 111" class="cls-6" d="M605.988,401.976l25.205-5.911c2.262-.531,4.607-.644,6.869-1.192,3.307-.8,4.212-1.079,4.678-4.233,1.346-9.14-.365-18.623,1.015-27.627,3.319-.33,6.522-1.116,9.909-1.071,5.532.073,5.052,3.878,5.363,8.117.369,5.028.589,10.072.624,15.113.028,4.178,1.407,22.3-4.73,23.623-4.4.964-48.72,3.324-48.7,4.233Z" transform="translate(-605.988 -361.941)"/>
      </g>
    </g>
    <g id="Grupo_199" data-name="Grupo 199" transform="translate(55.456 196.301)">
      <g id="Grupo_197" data-name="Grupo 197" transform="translate(31.105 21.475)">
        <path id="Trazado_112" data-name="Trazado 112" class="cls-13" d="M201.73,455.114c1.054-.33,8.882,1.635,8.364,2.32a14.344,14.344,0,0,1-1.985,1.976c2.231,1.361,9.214,3.729,4.233,6.26-2.159,1.1-7.906-.446-9.612-1.906l-.116-.1-2.77-7.4A3.98,3.98,0,0,1,201.73,455.114Z" transform="translate(-199.844 -455.077)"/>
      </g>
      <g id="Grupo_198" data-name="Grupo 198">
        <path id="Trazado_113" data-name="Trazado 113" class="cls-5" d="M147.955,419.253l31.07,22.564.035.095,2.77,7.4.719,1.924c-16.733-2.169-18.187-6.616-33.982-13.446Z" transform="translate(-147.955 -419.253)"/>
      </g>
    </g>
  </g>
</svg>
