<svg xmlns="http://www.w3.org/2000/svg" width="151" height="25.78" viewBox="0 0 151 25.78">
  <g id="for-light-bg" transform="translate(-0.438 -3.315)">
    <path id="Trazado_14" data-name="Trazado 14" d="M23.417,5.315H6.385A.588.588,0,0,0,5.8,5.9v7.451h9.529a.588.588,0,0,1,.59.586V23.4h7.5a.588.588,0,0,0,.59-.586V5.9a.588.588,0,0,0-.59-.586Z" transform="translate(0.376 0)" fill="#2f8deb"/>
    <path id="Trazado_15" data-name="Trazado 15" d="M16.289,13.412a.588.588,0,0,0-.59-.586H1.028a.588.588,0,0,0-.59.586v14.57a.588.588,0,0,0,.59.586H15.7a.588.588,0,0,0,.59-.586V22.875h-.608a9.5,9.5,0,0,1-9.509-9.449v-.6H15.7a.588.588,0,0,1,.59.586Z" transform="translate(0 0.527)" fill="#a0d6fa"/>
    <path id="Trazado_16" data-name="Trazado 16" d="M14.682,22.216h0Z" transform="translate(0.999 1.185)" fill="#fff"/>
    <path id="Trazado_17" data-name="Trazado 17" d="M15.324,12.826H5.8v.6a9.5,9.5,0,0,0,9.509,9.449h.608V13.412a.588.588,0,0,0-.59-.586Z" transform="translate(0.376 0.527)" fill="#fff"/>
    <text id="emergencia.id" transform="translate(36.438 22.315)" fill="#262b33" font-size="18" font-family="SegoeUI-Semibold, Segoe UI" font-weight="600"><tspan x="0" y="0">emergencia.id</tspan></text>
  </g>
</svg>
