<svg xmlns="http://www.w3.org/2000/svg" width="464.249" height="314" viewBox="0 0 464.249 314"><g transform="translate(-171.329 -244)"><g transform="translate(175.876 480.784)"><g transform="translate(0)" opacity="0.12" style="mix-blend-mode:multiply;isolation:isolate"><path d="M621.209,851.8H247.479c-11.821,0-21.493,5.86-21.493,13.022h0c0,4.96,4.639,9.293,11.417,11.49h-32.91c-11.821,0-21.493,5.861-21.493,13.023h0c0,7.162,9.672,13.023,21.493,13.023h11.467c-3.2,2.275-5.146,5.219-5.146,8.426v5.209c0,7.162,9.672,13.022,21.493,13.022H600.474c11.821,0,21.493-5.86,21.493-13.022v-5.209c0-7.162-9.672-13.022-21.493-13.022l-25.033.289a11.9,11.9,0,0,0,7.08-2.743c3.642-3.213,3.8-8.1,2.023-12.151-1.154-2.624-3-4.7-7.586-5.488l44.251.176c11.821,0,21.493-5.86,21.493-13.022h0C642.7,857.657,633.03,851.8,621.209,851.8Z" transform="translate(-183 -851.797)" fill="#606060"/></g></g><g transform="translate(171.329 244)"><g transform="translate(39.63 26.102)"><path d="M273.055,353.074l33.114-11.687L326.817,311l8.571,5.454L319.415,352.3l-34.283,18.31-12.077-8.571Z" transform="translate(-273.055 -311)" fill="#97d1ff"/></g><g transform="translate(354.8 13.246)"><path d="M1124.8,337.047l-29.48-25.364-.8-33.682-9.408.037-3.057,33.2.388,8.057,33.5,36.62,4.061-13.323Z" transform="translate(-1082.059 -278)" fill="#474ebb"/></g><g transform="translate(21.27 161.714)"><g transform="translate(0.763 105.351)"><path d="M228.235,933.044l-.35,3.522,6.405,4.378,3.727-3.094-3.028-3.95-6.405-4.378Z" transform="translate(-227.885 -929.523)" fill="#514943"/></g><path d="M226.989,660.324l-1.063,10.7,9.664,36.72L226.8,766.792l6.561,2.246,17.177-57.671,2.711-16.773-.169-35.5Z" transform="translate(-225.927 -659.099)" fill="#8c9498"/></g><g transform="translate(34.9 166.529)"><path d="M294.309,676.77l-2.7,99.844-6.23.7L277.2,714.42l-16.29-42.961Z" transform="translate(-260.913 -671.459)" fill="#8c9498"/><g transform="translate(24.415 104.316)"><path d="M323.584,939.981l.4,3.531,7.132,2.777,2.973-3.908-3.764-3.154Z" transform="translate(-323.584 -939.227)" fill="#514943"/></g></g><g transform="translate(0 69.841)"><path d="M190.6,442.1c.032-1.5.12-3,.28-4.493.918-8.588,6.534-11.835,14.144-14.123a13.478,13.478,0,0,1,12.489,4.246l.184-.164a15.1,15.1,0,0,1,1.713,2.682c.072.124.109.2.109.2,2.143,3.874,6.394,12.7,13.875,32.264,12.011,31.414,21.736,80.487,14.133,92.936l-.257-.609c-2.615.959-18.56,1.2-20.194,1.3-9.55.612-19.082,1.639-28.659,1.72a104.99,104.99,0,0,1-14.467-.756c-2.459-.321-10.857-.663-12.3-2.956-1.724-2.733,4.024-14.442,5.058-17.449,2.4-6.982,5.055-13.879,8.043-20.632,4.485-13.067,7.914-27.188,7.914-41.067C192.664,464.123,190.364,453.185,190.6,442.1Z" transform="translate(-171.329 -423.275)" fill="#97d1ff"/></g><g transform="translate(45.456 46.749)"><path d="M466.263,364.176c-21.531-1.754-48.623,9.737-55.088,28.122-6.465-18.384-39.5-29.7-61.029-27.943-56.819,4.628-76.053,67.991-51.962,110.6,12.966,22.934,31.6,42.986,51.927,60.991,17.023,15.077,60.93,47.056,61.064,46.947.134.109,44.042-31.87,61.065-46.947,20.328-18.005,38.961-38.057,51.927-60.991C548.257,432.346,523.082,368.8,466.263,364.176Z" transform="translate(-288.01 -364)" fill="#d9245e"/><g transform="translate(86.174 87.997)" opacity="0.12" style="mix-blend-mode:multiply;isolation:isolate"><path d="M648.143,618.221a308.948,308.948,0,0,1-48.361,46.957c-17.215,13.335-37.386,24.952-59.587,28.834a77.867,77.867,0,0,1-30.989-.666c18.123,13.987,37.82,28.288,37.91,28.215.134.109,44.042-31.869,61.064-46.947,20.329-18.005,38.961-38.057,51.927-60.991a70.35,70.35,0,0,0,8.193-23.745A224.014,224.014,0,0,1,648.143,618.221Z" transform="translate(-509.207 -589.877)"/></g><g transform="translate(18.17 38.828)"><path d="M540.643,523.171,496.008,524.3l-16.153-58.6c-.778-2.824-4.974-2.612-5.859,0l-34.557,102-2,5.908-23.5-67.146L410.169,495.7c-.757-2.164-4.328-3.022-5.552-.683l-17.081,32.623H337.584a2.861,2.861,0,1,0,0,5.719h51.833a3.046,3.046,0,0,0,2.623-1.417l14.638-27.956,24.108,68.888,3.769,10.769a3.125,3.125,0,0,0,5.859,0l34.557-102,1.653-4.879,14.119,51.221a3.059,3.059,0,0,0,2.93,2.1l46.97-1.192C544.545,528.791,544.561,523.072,540.643,523.171Z" transform="translate(-334.65 -463.666)" fill="#fff"/></g></g><g transform="translate(366.253 31.52)"><g transform="translate(10.86 108.391)"><g transform="translate(18.606 0.789)"><g transform="translate(36.38 127.535)"><path d="M1292.048,936.812l.934,4.287-7.406,6.1-5.1-3.378,3.236-5.2,7.406-6.105Z" transform="translate(-1280.472 -932.525)" fill="#3a3029"/></g><path d="M1209.145,605.159l8.264,19.057.78,53.617L1235.18,735.5l-7.9,3.5L1192.6,672.043l-3.946-21.21-1.569-44.67Z" transform="translate(-1187.089 -605.159)" fill="#cab5a1"/></g><path d="M1139.98,608.194l-.65,56.19,10.589,72.449h8.142l5.142-66.849,11.142-66.849Z" transform="translate(-1139.33 -603.134)" fill="#cab5a1"/><g transform="translate(5.477 132.729)"><path d="M1166.6,943.835v4.4l-8.8,4.4-4.4-4.4,4.4-4.4Z" transform="translate(-1153.389 -943.835)" fill="#3a3029"/></g></g><g transform="translate(0 36.563)"><path d="M1139,419.563l21.627-.8s12.938,11.352,19.625,40.852c6.808,30.038-1.258,73.28-1.258,73.28s-58.024-7.733-67.538-8.928l14.515-59.307Z" transform="translate(-1111.455 -418.762)" fill="#474ebb"/></g><g transform="translate(10.011)"><g transform="translate(14.401 14.096)"><path d="M1183.777,388.13l7.591-.58a37.984,37.984,0,0,0-.273-6.059c2.121-.692,4.578-1.747,4.994-3.939a6.292,6.292,0,0,0-.077-2.1q-.645-4.31-1.29-8.619a7.674,7.674,0,0,0-.827-2.877c-.911-1.51-2.729-2.2-4.459-2.543a15.685,15.685,0,0,0-12.767,2.807,6.872,6.872,0,0,0-2.208,2.78c-.661,1.724-.239,3.652.189,5.448l1.186,4.973c.455,1.907,1.125,4.077,2.935,4.83.961.4,2.108.315,2.974.893C1183.269,384.167,1183.008,386.464,1183.777,388.13Z" transform="translate(-1174.116 -361.092)" fill="#eacdb0"/></g><path d="M1137.152,336.907a24.36,24.36,0,0,1,.741-5.724c.739-3.061,4.4-4.366,7.542-4.517,6.793-.326,13.4-3.262,19.978-.748,3.757,1.437,8.835,1.871,12.221,3.856a10.121,10.121,0,0,1,3.388,3.5,15.245,15.245,0,0,1-.323,16.118,21.787,21.787,0,0,1-2.44,2.936c-1.831,1.9-4.022,4.243-6.5,4.906-.009-2.2,2.151-9.09.5-10.93-2.616-2.921-8.7-2.06-12.04-1.431-3.644.686-6.935,3.182-10.543,3.649-2.6.336-5.87-1.007-8.04-2.394C1138.242,343.95,1137.166,340.455,1137.152,336.907Z" transform="translate(-1137.152 -324.909)" fill="#3a3029"/></g><g transform="translate(8.908 38.92)"><path d="M1158.921,425.93l-22.736,90.945-1.864,11.927,28.327,3.727s-1.118-43.551-.746-49.357,4.574-18.366,5.219-31.9c.372-7.827,2.859-21.887,1.118-26.464Z" transform="translate(-1134.321 -424.812)" fill="#fff"/></g></g><g transform="translate(11.542 67.374)"><path d="M222.908,416.942l-21.953,13.419.554,17.3,29.817,41.629,43.89-18.508-4.522-11.035-32.213,9.6-19.72-35.671Z" transform="translate(-200.955 -416.942)" fill="#97d1ff"/></g><g transform="translate(13.75 33.173)"><g transform="translate(21.101 2.227)"><path d="M260.788,343.86a12.66,12.66,0,0,1,11.651,7.609,11.142,11.142,0,0,0-7.464-16.6,12.9,12.9,0,0,0-3.824,8.972Z" transform="translate(-260.788 -334.868)" fill="#9e6652"/></g><g transform="translate(9.575 6.636)"><path d="M253.706,352.327c-6.03-11.739-20.932-5-22.412,6.388-.842,6.476,4.209,13.8,10.456,16.283.434,1.069,1.475,4.063,2.534,4.551,1.147.528,3.794-1.08,4.842-1.673a1.812,1.812,0,0,0,.75-.644,3.381,3.381,0,0,0-.221-1.985A10.8,10.8,0,0,0,252.039,374c3.263-2.254,4.892-6.373,4.9-10.339A25.134,25.134,0,0,0,253.706,352.327Z" transform="translate(-231.202 -346.185)" fill="#eacdb0"/></g><path d="M228.728,391.63a54.421,54.421,0,0,0,8.531-3.555c-1.881.98-8.857-20.189-9.364-21.646a22.379,22.379,0,0,1-.028-13.075,70.415,70.415,0,0,1,5.049-12.252,10.474,10.474,0,0,0,1.471-5.25,6.827,6.827,0,0,0-3.223-4.937,9.571,9.571,0,0,0-8.2-1.387,22.387,22.387,0,0,0-14.217,11.458c-3.225,6.8-2.274,15.076-.429,22.149a47,47,0,0,1,1.358,5.721,40.176,40.176,0,0,1,.073,6.288,27.5,27.5,0,0,0,.977,9.2,12.108,12.108,0,0,0,5.583,7.141C220.14,393.489,224.785,392.894,228.728,391.63Z" transform="translate(-206.624 -329.151)" fill="#9e6652"/></g><g transform="translate(82.284 106.355)"><path d="M382.542,523.27,389.05,517l9.762.126.234,5.942-13.836,6.713Z" transform="translate(-382.542 -517)" fill="#eacdb0"/></g><g transform="translate(185.722 65.258)"><path d="M648.055,551.737,682.8,520.275l33.393,36.406L829.758,411.508l34.3,31.962L718.793,615.049Z" transform="translate(-648.055 -411.508)" fill="#28a745"/></g><g transform="translate(357.136 68.176)"><path d="M1146.492,419l-16.362,42.854h-39.737l-2.338,12.856,43.243,3.506,14.025-5.844,14.023-33.167Z" transform="translate(-1088.055 -419)" fill="#474ebb"/></g><g transform="translate(338.047 106.355)"><path d="M1060.482,521.675,1048.794,517l-9.74,6.233,1.559,4.285,18.329,2.624Z" transform="translate(-1039.055 -517)" fill="#eacdb0"/></g><g transform="translate(355.968)"><path d="M1095.34,257.246l2.961-7.012L1092.067,244l-7.012,10.519,3.506,2.757Z" transform="translate(-1085.055 -244)" fill="#eacdb0"/></g><g transform="translate(94.762 13.246)"><path d="M414.571,291.728l.189-10.611H417.1l1.558,3.117L426.447,278l2.337,5.454-7.012,12.856Z" transform="translate(-414.571 -278)" fill="#eacdb0"/></g></g></g></svg>